<svg id="Layer_1" data-name="Layer 1" xmlns="http://www.w3.org/2000/svg" viewBox="0 0 96 96"><defs><style>.cls-1{fill:none;stroke-linecap:round;stroke-linejoin:round;stroke-width:2px;}.cls-1,.cls-2{stroke:#1ca5f2;}.cls-2{fill:#007aff;stroke-miterlimit:10;isolation:isolate;opacity:0.17;}.cls-3{fill:#ec5544;}</style></defs><path class="cls-1" d="M56.85,19.4a8.75,8.75,0,0,1-3,6.55,8.94,8.94,0,0,1-12.09-.17,8.76,8.76,0,0,1-2.76-6.38,8.9,8.9,0,0,1,17.8,0Z"/><path class="cls-1" d="M56.85,77.76a8.9,8.9,0,0,1-17.8,0A8.73,8.73,0,0,1,40.1,73.6a8.95,8.95,0,0,1,15.66-.08A8.68,8.68,0,0,1,56.85,77.76Z"/><line class="cls-1" x1="19.94" y1="52.57" x2="41.8" y2="25.78"/><line class="cls-1" x1="70.78" y1="46.63" x2="53.91" y2="25.96"/><line class="cls-1" x1="69.52" y1="66.08" x2="55.77" y2="73.52"/><line class="cls-1" x1="40.09" y1="73.6" x2="22.16" y2="64.12"/><line class="cls-1" x1="47.95" y1="68.7" x2="47.95" y2="28.22"/><ellipse class="cls-1" cx="14.11" cy="59.65" rx="8.92" ry="8.82"/><ellipse class="cls-2" cx="14.11" cy="59.65" rx="8.92" ry="8.82"/><path class="cls-3" d="M80.29,46.51a10.78,10.78,0,1,0,10.9,10.78A10.83,10.83,0,0,0,80.29,46.51Zm3.78,13.9a.56.56,0,0,1,0,.78l-.19.19a.55.55,0,0,1-.77,0l-3-3-3,3a.55.55,0,0,1-.77,0l-.18-.19a.54.54,0,0,1,0-.78l2.95-3-2.95-3a.54.54,0,0,1,0-.78l.18-.18a.53.53,0,0,1,.77,0l3,3,3-3a.53.53,0,0,1,.77,0l.19.18a.56.56,0,0,1,0,.78l-3,3Z"/><ellipse class="cls-1" cx="80.29" cy="57.29" rx="10.78" ry="10.9" transform="translate(-16.99 73.56) rotate(-45)"/></svg>