<svg id="Layer_1" data-name="Layer 1" xmlns="http://www.w3.org/2000/svg" viewBox="0 0 96 96"><defs><style>.cls-1{fill:none;stroke-linecap:round;stroke-linejoin:round;stroke-width:2px;}.cls-1,.cls-2{stroke:#1ca5f2;}.cls-2{fill:#86c9f7;stroke-miterlimit:10;opacity:0.1;}.cls-3{fill:#30d158;}</style></defs><path class="cls-1" d="M57.32,74.36h-16a8,8,0,0,1,7.18-7.86,4,4,0,1,1,1.68,0A8,8,0,0,1,57.32,74.36Z"/><path class="cls-1" d="M84,45.74a33.38,33.38,0,0,1-1.07,8.42H16.52a33.38,33.38,0,0,1-1.07-8.42,34.28,34.28,0,0,1,68.55,0Z"/><ellipse class="cls-1" cx="49.72" cy="45.74" rx="6.86" ry="6.76"/><ellipse class="cls-2" cx="49.72" cy="45.74" rx="6.86" ry="6.76"/><polyline class="cls-1" points="92.52 58.07 92.52 54.16 82.93 54.16 16.52 54.16 6.83 54.16 6.83 79.54 49.72 79.54 68.59 79.54"/><path class="cls-1" d="M53.32,62.64a4,4,0,0,1-3.17,3.86,3.92,3.92,0,0,1-1.67,0h0a4,4,0,1,1,4.85-3.86Z"/><path class="cls-1" d="M57.32,74.36h-16a8,8,0,0,1,7.18-7.86h0a7.38,7.38,0,0,1,.82,0,8,8,0,0,1,8,7.9Z"/><path class="cls-3" d="M82.47,61.54a10,10,0,1,0,10,10A10,10,0,0,0,82.47,61.54ZM87,71.64a.91.91,0,0,1-.91.92H83.48v2.67a.91.91,0,0,1-.91.91h-.2a.91.91,0,0,1-.91-.91V72.56H78.82a.91.91,0,0,1-.91-.92v-.2a.91.91,0,0,1,.91-.91h2.64V67.86a.92.92,0,0,1,.91-.92h.2a.92.92,0,0,1,.91.92v2.67h2.64a.91.91,0,0,1,.91.91Z"/><path class="cls-1" d="M82.47,61.54a10,10,0,1,0,10,10A10,10,0,0,0,82.47,61.54Z"/></svg>