<svg id="Layer_1" data-name="Layer 1" xmlns="http://www.w3.org/2000/svg" viewBox="0 0 96 96"><defs><style>.cls-1{fill:#fff;stroke-miterlimit:10;}.cls-1,.cls-2{stroke:#1ca5f2;stroke-linecap:round;stroke-width:2px;}.cls-2{fill:none;stroke-linejoin:round;}.cls-3{fill:#ec5544;}</style></defs><path class="cls-1" d="M8.42,81.72V46.82a7.22,7.22,0,0,1,.06-.92"/><path class="cls-2" d="M79.34,42.12l.21.1,0,0a3.54,3.54,0,0,1,.79.59l0,0a3.8,3.8,0,0,1,.72,1,4.35,4.35,0,0,1,.3.83,4.43,4.43,0,0,1,.09.72v.07a3.68,3.68,0,0,1-1,2.68L79,49.31l-.56.42-.47.35-.21.16-.07,0a1.21,1.21,0,0,1-.21.15c-4.21,3.12-12,8.9-18.75,13.87"/><path class="cls-2" d="M31.27,64.32,12.43,50.38l-.06,0-1.11-.83c-.4-.3-.76-.58-.86-.63l-.85-.64h0l-.08-.06a3.79,3.79,0,0,1-.93-1.78,1.55,1.55,0,0,1,0-.21.2.2,0,0,1,0-.11.14.14,0,0,1,0-.09,1.22,1.22,0,0,1,0-.38,4,4,0,0,1,.83-2.41,3,3,0,0,1,.39-.41,2.6,2.6,0,0,1,.62-.47,1.18,1.18,0,0,1,.19-.11"/><path class="cls-2" d="M30.41,27.42c-9.61,7.09-21,15.51-21,15.51a3.78,3.78,0,0,0-.61,4.3,3.68,3.68,0,0,0,1.57,1.65c.23.12,1.77,1.39,2,1.5"/><path class="cls-2" d="M77.94,50.08c-1.92,1.42,2.41-1.74,2.75-2.17a3.87,3.87,0,0,0-.18-5s-11.37-8.42-21-15.51"/><polyline class="cls-2" points="38.2 33.75 38.2 21.75 28.26 13.25 28.26 15.75 28.26 13.25 31.25 13.25"/><polyline class="cls-2" points="50.61 33.75 50.61 21.75 60.55 13.25 60.55 15.75 60.55 13.25 57.56 13.25"/><polyline class="cls-2" points="44.98 34.54 44.98 13.01 43.01 14.99 44.98 13.01 46.96 15"/><polyline class="cls-2" points="28.26 59.75 28.26 37.84 61.58 37.84 61.58 60.05"/><line class="cls-2" x1="81.52" y1="45.89" x2="81.52" y2="63.92"/><ellipse class="cls-2" cx="45.24" cy="45.54" rx="4.06" ry="4.1"/><path class="cls-2" d="M53.36,58.22H50.44c-2.37-1.74-3.9-2.85-4-2.89a3.57,3.57,0,0,0-2.88,0c-.1,0-1.64,1.17-4,2.92H37.1a8.13,8.13,0,1,1,16.26,0Z"/><path class="cls-2" d="M68,71.16,58.7,64.31c-3.15-2.33-6.06-4.48-8.26-6.09-2.37-1.74-3.9-2.85-4-2.89a3.57,3.57,0,0,0-2.88,0c-.1,0-1.64,1.17-4,2.92-2.2,1.61-5.11,3.76-8.27,6.1h0C21.48,71.53,9.45,80.45,9.45,80.45a3.78,3.78,0,0,0,2.64,6.36H66"/><path class="cls-3" d="M81.3,68.24a9.95,9.95,0,1,0,10,9.94A10,10,0,0,0,81.3,68.24Zm3.47,12.82a.51.51,0,0,1,0,.72L84.6,82a.51.51,0,0,1-.71,0l-2.71-2.75L78.48,82a.51.51,0,0,1-.71,0l-.17-.18a.51.51,0,0,1,0-.72l2.71-2.74L77.6,75.57a.51.51,0,0,1,0-.72l.17-.16a.48.48,0,0,1,.71,0l2.7,2.74,2.71-2.74a.48.48,0,0,1,.71,0l.17.16a.51.51,0,0,1,0,.72l-2.71,2.75Z"/><ellipse class="cls-2" cx="81.31" cy="78.18" rx="9.91" ry="10.03" transform="matrix(0.85, -0.53, 0.53, 0.85, -29.14, 55.29)"/></svg>