<svg id="Layer_1" data-name="Layer 1" xmlns="http://www.w3.org/2000/svg" viewBox="0 0 96 96"><defs><style>.cls-1,.cls-2{fill:none;stroke-width:2px;}.cls-1,.cls-2,.cls-3,.cls-4{stroke:#1ca5f2;}.cls-1{stroke-linecap:round;stroke-linejoin:round;}.cls-2,.cls-3,.cls-4{stroke-miterlimit:10;}.cls-3{fill:#1ca5f2;}.cls-3,.cls-4{isolation:isolate;opacity:0.17;}.cls-4{fill:#007aff;}.cls-5{fill:#ec5544;}.cls-6{fill:#f2a33c;}.cls-7{fill:#65c366;}</style></defs><rect class="cls-1" x="9" y="9" width="78" height="78" rx="4"/><circle class="cls-1" cx="29.01" cy="49.91" r="5.85"/><rect class="cls-1" x="61.71" y="38.26" width="4.38" height="3.44" rx="0.71"/><path class="cls-1" d="M17.31,67.33a11.7,11.7,0,0,1,23.4,0"/><rect class="cls-1" x="48.22" y="53.74" width="31.2" height="3.9" rx="0.8"/><rect class="cls-1" x="48.22" y="63.39" width="31.2" height="3.9" rx="0.8"/><rect class="cls-2" x="59.35" y="41.71" width="8.95" height="5.51" rx="0.8"/><rect class="cls-1" x="59.35" y="41.71" width="8.95" height="5.51" rx="0.8"/><rect class="cls-3" x="59.35" y="41.16" width="8.95" height="6.61" rx="0.88"/><rect class="cls-4" x="9.35" y="9.16" width="77.3" height="15.91" rx="2.4"/><circle class="cls-5" cx="16.37" cy="17.06" r="2.5"/><circle class="cls-6" cx="26.04" cy="17.12" r="2.5"/><circle class="cls-7" cx="35.57" cy="17.06" r="2.5"/><line class="cls-1" x1="86.75" y1="24.6" x2="9" y2="24.6"/></svg>