<svg id="Layer_1" data-name="Layer 1" xmlns="http://www.w3.org/2000/svg" viewBox="0 0 96 96"><defs><style>.cls-1{fill:none;stroke:#1ca5f2;stroke-linecap:round;stroke-linejoin:round;stroke-width:2px;}.cls-2{fill:#007aff;isolation:isolate;opacity:0.17;}</style></defs><path class="cls-1" d="M5.44,82.36a21.7,21.7,0,0,1,21.5-21.88,21.7,21.7,0,0,1,21.5,21.88"/><ellipse class="cls-1" cx="29.28" cy="49.55" rx="10.75" ry="10.94"/><path class="cls-1" d="M48.44,82.36a21.5,21.5,0,1,1,43,0"/><ellipse class="cls-1" cx="67.45" cy="49.55" rx="10.75" ry="10.94"/><path class="cls-1" d="M77.4,12.36H45.28a5.34,5.34,0,0,0-5.44,5.2v9.3a5.17,5.17,0,0,0,2.76,4.52l-.2,2.55a.29.29,0,0,0,.43.27l2.32-2.14H77.4a5.34,5.34,0,0,0,5.44-5.2v-9.3A5.34,5.34,0,0,0,77.4,12.36Z"/><ellipse class="cls-1" cx="48.44" cy="22.3" rx="2.15" ry="2.19"/><ellipse class="cls-1" cx="61.34" cy="22.3" rx="2.15" ry="2.19"/><ellipse class="cls-1" cx="74.24" cy="22.3" rx="2.15" ry="2.19"/><ellipse class="cls-2" cx="48.44" cy="22.3" rx="2.15" ry="2.19"/><ellipse class="cls-2" cx="61.34" cy="22.3" rx="2.15" ry="2.19"/><ellipse class="cls-2" cx="74.24" cy="22.3" rx="2.15" ry="2.19"/></svg>