<svg id="Layer_1" data-name="Layer 1" xmlns="http://www.w3.org/2000/svg" viewBox="0 0 96 96"><defs><style>.cls-1{fill:none;stroke-linecap:round;stroke-linejoin:round;stroke-width:2px;}.cls-1,.cls-2{stroke:#1ca5f2;}.cls-2{fill:#007aff;stroke-miterlimit:10;isolation:isolate;opacity:0.17;}</style></defs><path class="cls-1" d="M62.64,40.6V9.85a1.41,1.41,0,0,0-1.41-1.41H10.72A1.41,1.41,0,0,0,9.31,9.85V87a1.41,1.41,0,0,0,1.41,1.41H48.48l4.15,0"/><rect class="cls-1" x="15.97" y="17.33" width="40" height="4.44" rx="0.8"/><rect class="cls-1" x="15.97" y="28.43" width="40" height="4.44" rx="0.8"/><circle class="cls-1" cx="35.97" cy="55.09" r="6.67"/><circle class="cls-1" cx="35.97" cy="55.09" r="6.67"/><circle class="cls-2" cx="35.97" cy="55.09" r="6.67"/><path class="cls-1" d="M66.66,70.46H65.34l.55,0Z"/><path class="cls-1" d="M72,70.46c-.86.05-1.75.08-2.64.08s-1.78,0-2.65-.08Z"/><path class="cls-1" d="M73.28,70.46H72l.77,0Z"/><path class="cls-1" d="M89.31,70.58v8.59c0,4.91-9,8.89-20,8.89s-20-4-20-8.89V70.58a5.67,5.67,0,0,0,2.6,4.21c3.44,2.64,9.94,4.42,17.4,4.42s14-1.78,17.4-4.42A5.67,5.67,0,0,0,89.31,70.58Z"/><path class="cls-1" d="M66.66,70.46H65.34l.55,0Z"/><path class="cls-1" d="M72,70.46c-.86.05-1.75.08-2.64.08s-1.78,0-2.65-.08Z"/><path class="cls-1" d="M73.28,70.46H72l.77,0Z"/><line class="cls-1" x1="89.31" y1="61.82" x2="89.31" y2="61.7"/><path class="cls-1" d="M89.31,62v8.61a5.67,5.67,0,0,1-2.6,4.21c-3.44,2.64-9.95,4.42-17.4,4.42s-14-1.78-17.4-4.42a5.67,5.67,0,0,1-2.6-4.21V62A5.75,5.75,0,0,0,52,66.16c2.91,2.21,8,3.81,13.92,4.25l-.55,0h1.32c.87.05,1.75.08,2.65.08s1.78,0,2.64-.08h1.33l-.56,0c6-.44,11-2,13.93-4.25A5.75,5.75,0,0,0,89.31,62Z"/><line class="cls-1" x1="49.31" y1="61.82" x2="49.31" y2="61.7"/><path class="cls-1" d="M72,70.46c-.86.05-1.75.08-2.64.08s-1.78,0-2.65-.08Z"/><line class="cls-1" x1="89.31" y1="61.82" x2="89.31" y2="61.7"/><polyline class="cls-1" points="89.3 53.08 89.31 53.08 89.31 53.21"/><path class="cls-1" d="M89.31,61.7h0a.49.49,0,0,1,0,.12V62a5.75,5.75,0,0,1-2.66,4.19c-2.91,2.21-8,3.81-13.93,4.25l-.77,0H66.66l-.77,0c-6-.44-11-2-13.92-4.25A5.75,5.75,0,0,1,49.31,62v-.15a.49.49,0,0,1,0-.12h0V53.21a5.71,5.71,0,0,0,2.56,4.35c2.48,2,6.58,3.46,11.49,4.14.7.1,1.43.18,2.17.24,1.22.11,2.49.16,3.78.16s2.56-.05,3.78-.16c.74-.06,1.46-.14,2.17-.24,4.91-.68,9-2.18,11.49-4.14a5.71,5.71,0,0,0,2.56-4.35Z"/><polyline class="cls-1" points="49.31 53.21 49.31 53.08 49.32 53.08"/><line class="cls-1" x1="49.31" y1="61.82" x2="49.31" y2="61.7"/><path class="cls-1" d="M89.31,53.21a5.71,5.71,0,0,1-2.56,4.35c-2.48,2-6.58,3.46-11.49,4.14-.71.1-1.43.18-2.17.24-1.22.11-2.49.16-3.78.16s-2.56-.05-3.78-.16c-.74-.06-1.47-.14-2.17-.24-4.91-.68-9-2.18-11.49-4.14a5.71,5.71,0,0,1-2.56-4.35.57.57,0,0,1,0-.13c.15-4.85,9-8.76,20-8.76s19.84,3.91,20,8.76A.57.57,0,0,1,89.31,53.21Z"/></svg>