<svg id="Layer_1" data-name="Layer 1" xmlns="http://www.w3.org/2000/svg" viewBox="0 0 96 96"><defs><style>.cls-1{fill:none;stroke-linecap:round;stroke-linejoin:round;stroke-width:2px;}.cls-1,.cls-2{stroke:#1ca5f2;}.cls-2{fill:#007aff;stroke-miterlimit:10;isolation:isolate;opacity:0.17;}</style></defs><path class="cls-1" d="M84.11,26.84a5.71,5.71,0,0,1,.31,1.86V56.27"/><path class="cls-1" d="M29.7,48.07C19.32,55.93,6.67,65.54,6.33,65.8l0,0a4.24,4.24,0,0,0-.85,1.43V29a.15.15,0,0,1,.26-.12C7.64,30.71,20,40.44,29.7,47.83A.15.15,0,0,1,29.7,48.07Z"/><path class="cls-1" d="M59.49,47.94c5.08,3.85,10.72,8.13,15.21,11.55l2.48,1.83"/><path class="cls-1" d="M5.46,67.25a4.15,4.15,0,0,0,3.71,5.6H67.39"/><path class="cls-1" d="M84.11,26.84A4.2,4.2,0,0,1,83,30.07S46.68,57.7,46.2,57.92a3.75,3.75,0,0,1-3.11,0c-.18-.09-6.15-4.59-13.23-9.94L6.32,30.07a4.25,4.25,0,0,1-.86-1.45A5.57,5.57,0,0,1,10.93,23H79A5.48,5.48,0,0,1,84.11,26.84Z"/><path class="cls-1" d="M86.62,67.34,93,63.15a.32.32,0,0,0,0-.6l-6.39-4.19a.59.59,0,0,0-.84.5v2.32H80.07v3.34h5.72v2.33A.59.59,0,0,0,86.62,67.34Z"/><path class="cls-1" d="M86.62,67.34,93,63.15a.32.32,0,0,0,0-.6l-6.39-4.19a.59.59,0,0,0-.84.5v2.32H80.07v3.34h5.72v2.33A.59.59,0,0,0,86.62,67.34Z"/><path class="cls-1" d="M77.67,68l-6.41,4.19a.32.32,0,0,0,0,.6L77.65,77a.59.59,0,0,0,.84-.5V74.16h5.73V70.82H78.49V68.49A.57.57,0,0,0,77.67,68Z"/><path class="cls-1" d="M77.67,68l-6.41,4.19a.32.32,0,0,0,0,.6L77.65,77a.59.59,0,0,0,.84-.5V74.16h5.73V70.82H78.49V68.49A.57.57,0,0,0,77.67,68Z"/><path class="cls-2" d="M86.62,67.34,93,63.15a.32.32,0,0,0,0-.6l-6.39-4.19a.59.59,0,0,0-.84.5v2.32H80.07v3.34h5.72v2.33A.59.59,0,0,0,86.62,67.34Z"/><path class="cls-2" d="M77.67,68l-6.41,4.19a.32.32,0,0,0,0,.6L77.65,77a.59.59,0,0,0,.84-.5V74.16h5.73V70.82H78.49V68.49A.57.57,0,0,0,77.67,68Z"/></svg>