<svg id="Layer_1" data-name="Layer 1" xmlns="http://www.w3.org/2000/svg" viewBox="0 0 96 96"><defs><style>.cls-1{fill:none;stroke:#1ca5f2;stroke-linecap:round;stroke-linejoin:round;stroke-width:2px;}.cls-2{fill:#ff9500;}</style></defs><polygon class="cls-1" points="60.45 30.28 30.22 30.28 32.11 18.58 60.45 18.58 60.45 30.28"/><polyline class="cls-1" points="30.21 30.02 41.59 25.2 41.61 25.2"/><line class="cls-1" x1="60.46" y1="30.06" x2="49.22" y2="25.3"/><path class="cls-1" d="M32.23,18.66s10,6.72,12.6,9.05a.75.75,0,0,0,1,0c2.62-2.33,14.49-9,14.49-9a0,0,0,0,0,0-.08H32.25A0,0,0,0,0,32.23,18.66Z"/><path class="cls-2" d="M74.25,69.44a9.5,9.5,0,1,0,9.5,9.5A9.5,9.5,0,0,0,74.25,69.44Zm2.45,9.1H75v3.52a.73.73,0,0,1-.73.73.73.73,0,0,1-.72-.73V78.54H71.8a.24.24,0,0,1-.21-.36l2.44-3a.25.25,0,0,1,.43,0l2.45,3A.25.25,0,0,1,76.7,78.54Z"/><circle class="cls-1" cx="74.25" cy="78.94" r="9.5"/><path class="cls-1" d="M62.88,84.52a51.41,51.41,0,0,1-17.63,2.93c-16.71,0-30.26-7-30.26-15.66V56.19C15,59,16.45,61.7,19,64a30.18,30.18,0,0,0,12.29,6.1,53.77,53.77,0,0,0,14,1.77c9.34,0,17.7-2.2,23.24-5.64a21.06,21.06,0,0,0,2.4-1.73h0c2.91-2.39,4.6-5.23,4.6-8.29v9.3"/><path class="cls-1" d="M75.5,40.71V56.19c0,3.06-1.69,5.9-4.6,8.29h0a21.06,21.06,0,0,1-2.4,1.73c-5.54,3.44-13.9,5.64-23.24,5.64A53.77,53.77,0,0,1,31.3,70.09,30.18,30.18,0,0,1,19,64c-2.56-2.29-4-5-4-7.8V40.71c0,2.82,1.44,5.46,4,7.74,4.36,4,12,6.85,21,7.67l.74.07.79.06h0q1.86.12,3.78.12c1.28,0,2.54,0,3.77-.12h0l.8-.06.75-.07c9-.83,16.58-3.71,20.94-7.67C74.06,46.17,75.5,43.53,75.5,40.71Z"/><path class="cls-1" d="M50.61,40.53c8.93-.82,16.5-3.68,20.87-7.62l.06,0c2.52-2.28,4-4.93,4-7.75V25C75.43,16.42,61.91,9.45,45.25,9.45S15.06,16.42,15,25v.07c0,2.82,1.44,5.47,4,7.75l.06,0c4.37,3.94,12,6.8,20.89,7.62A53.89,53.89,0,0,0,50.61,40.53Z"/><path class="cls-1" d="M15,40.71c0-.05,0-.14,0-.18V25.11c0,2.82,1.44,5.47,4,7.75l.06,0c4.37,3.94,12,6.8,20.89,7.62l1.57.13.94.05c.94,0,1.88.07,2.84.07s1.91,0,2.84-.07l.93-.05,1.59-.13c8.93-.82,16.5-3.68,20.87-7.62l.06,0c2.52-2.28,4-4.93,4-7.75v15.6"/></svg>