<svg id="Layer_1" data-name="Layer 1" xmlns="http://www.w3.org/2000/svg" viewBox="0 0 96 96"><defs><style>.cls-1{fill:none;stroke-linecap:round;stroke-linejoin:round;stroke-width:2px;}.cls-1,.cls-2{stroke:#1ca5f2;}.cls-2{fill:#007aff;stroke-miterlimit:10;isolation:isolate;opacity:0.17;}</style></defs><path class="cls-1" d="M66.3,83.67A40,40,0,1,1,80.5,70.33"/><path class="cls-1" d="M78.88,73.36,68,69.8a.75.75,0,0,0-.93.92l3.56,10.82a1.11,1.11,0,0,0,1.88.35l2.17-2.16,5,5L82,82.39l-5-5,2.19-2.19A1.1,1.1,0,0,0,78.88,73.36Z"/><path class="cls-1" d="M66.78,48.72c0,21.63-12.71,39.16-18.7,39.16S27.73,70.35,27.73,48.72,42.1,9.55,48.08,9.55,66.78,27.09,66.78,48.72Z"/><line class="cls-1" x1="47.25" y1="9.55" x2="47.25" y2="87.88"/><line class="cls-1" x1="84.42" y1="35.38" x2="9.11" y2="35.38"/><line class="cls-1" x1="84.45" y1="62.05" x2="9.11" y2="62.05"/><path class="cls-1" d="M78.88,73.36,68,69.8a.75.75,0,0,0-.93.92l3.56,10.82a1.11,1.11,0,0,0,1.88.35l2.17-2.16,5,5L82,82.39l-5-5,2.19-2.19A1.1,1.1,0,0,0,78.88,73.36Z"/><path class="cls-2" d="M78.88,73.36,68,69.8a.75.75,0,0,0-.93.92l3.56,10.82a1.11,1.11,0,0,0,1.88.35l2.17-2.16,5,5L82,82.39l-5-5,2.19-2.19A1.1,1.1,0,0,0,78.88,73.36Z"/></svg>