<svg id="Layer_1" data-name="Layer 1" xmlns="http://www.w3.org/2000/svg" viewBox="0 0 96 96"><defs><style>.cls-1{fill:none;stroke:#1ca5f2;stroke-linecap:round;stroke-linejoin:round;stroke-width:2px;}.cls-2{fill:#30d158;}</style></defs><path class="cls-1" d="M83,47.41A33.46,33.46,0,0,1,82,55.84H15.36a33.46,33.46,0,0,1-1.07-8.43c0-.44,0-.87,0-1.31s0-.86.07-1.29,0-.6.08-.89.06-.55.1-.82c.07-.56.16-1.12.26-1.68,0-.25.09-.5.14-.75s.13-.61.2-.9.2-.81.31-1.21.16-.58.25-.87c0-.11.07-.23.11-.34.17-.54.35-1.08.55-1.6s.33-.86.51-1.28l.15-.36c.09-.21.18-.42.28-.62a33.07,33.07,0,0,1,2.83-5c.31-.45.63-.89,1-1.33l.71-.9c.3-.37.62-.74.94-1.11s.63-.69.95-1,.62-.64.94-.93A31.38,31.38,0,0,1,28,20.41l.15-.11.93-.66c.74-.51,1.51-1,2.3-1.45.39-.23.79-.44,1.19-.65s.81-.42,1.22-.61h0q.6-.29,1.2-.54h0l.89-.37.18-.07.42-.16,1.05-.37.11,0c.77-.26,1.56-.49,2.36-.69l.07,0c.21-.06.41-.11.62-.15l1-.23c.4-.08.81-.16,1.22-.22s.89-.14,1.33-.2l.19,0c.43-.05.86-.1,1.29-.13l.26,0,1.19-.07c.48,0,1,0,1.45,0C67.65,13.58,83,28.73,83,47.41Z"/><path class="cls-1" d="M83,47.41A33.46,33.46,0,0,1,82,55.84H15.36a33.46,33.46,0,0,1-1.07-8.43c0-.44,0-.87,0-1.31s0-.86.07-1.29,0-.6.08-.89.06-.55.1-.82c.07-.56.16-1.12.26-1.68,0-.25.09-.5.14-.75s.13-.61.2-.9.2-.81.31-1.21.16-.58.25-.87c0-.11.07-.23.11-.34.17-.54.35-1.08.55-1.6s.33-.86.51-1.28l.15-.36c.09-.21.18-.42.28-.62a33.07,33.07,0,0,1,2.83-5c.31-.45.63-.89,1-1.33l.71-.9c.3-.37.62-.74.94-1.11s.63-.69.95-1,.62-.64.94-.93A31.38,31.38,0,0,1,28,20.41l.15-.11.93-.66c.74-.51,1.51-1,2.3-1.45.39-.23.79-.44,1.19-.65s.81-.42,1.22-.61h0q.6-.29,1.2-.54h0l.89-.37.18-.07.42-.16,1.05-.37.11,0c.77-.26,1.56-.49,2.36-.69l.07,0c.21-.06.41-.11.62-.15l1-.23c.4-.08.81-.16,1.22-.22s.89-.14,1.33-.2l.19,0c.43-.05.86-.1,1.29-.13l.26,0,1.19-.07c.48,0,1,0,1.45,0C67.65,13.58,83,28.73,83,47.41Z"/><ellipse class="cls-1" cx="48.66" cy="47.41" rx="6.87" ry="6.77"/><polyline class="cls-1" points="91.58 59.75 91.58 55.84 81.97 55.84 15.36 55.84 5.65 55.84 5.65 81.25 48.66 81.25 61.56 81.25 63.12 81.25"/><path class="cls-1" d="M44.28,70.32l-6.41,4.54a1,1,0,0,0-.3.72V65.05a1.06,1.06,0,0,0,.3.73Z"/><path class="cls-1" d="M59.05,64.55v11a1.05,1.05,0,0,0-.3-.72l-6.41-4.54,6.41-4.54a1,1,0,0,0,.17-1.21A1.06,1.06,0,0,0,58,64H38.65a1.08,1.08,0,0,0-1.08,1.06v-.5a.73.73,0,0,1,.73-.73h20A.72.72,0,0,1,59.05,64.55Z"/><path class="cls-1" d="M58.75,65.78l-6.41,4.54c-1.93,1.36-3.56,2.51-3.62,2.53a1.11,1.11,0,0,1-.84,0c-.05,0-1.68-1.17-3.6-2.53l-6.41-4.54A1.06,1.06,0,0,1,38.65,64H58a1.06,1.06,0,0,1,1,.58A1,1,0,0,1,58.75,65.78Z"/><path class="cls-1" d="M44.28,70.6l-.08.06-6.33,4.48a1.06,1.06,0,0,0,.78,1.79H58a1.06,1.06,0,0,0,1-.58,1,1,0,0,0-.17-1.21L52.48,70.7l-.14-.1"/><line class="cls-1" x1="71" y1="81.25" x2="61.56" y2="81.25"/><ellipse class="cls-1" cx="48.66" cy="47.41" rx="6.87" ry="6.77"/><path class="cls-2" d="M83.85,63.43a10,10,0,1,0,10,10A10,10,0,0,0,83.85,63.43Zm4.56,10.1a.91.91,0,0,1-.91.92H84.86v2.67A.91.91,0,0,1,84,78h-.2a.91.91,0,0,1-.91-.91V74.45H80.2a.91.91,0,0,1-.91-.92v-.2a.91.91,0,0,1,.91-.91h2.64V69.75a.92.92,0,0,1,.91-.92H84a.92.92,0,0,1,.91.92v2.67H87.5a.91.91,0,0,1,.91.91Z"/><path class="cls-1" d="M83.85,63.43a10,10,0,1,0,10,10A10,10,0,0,0,83.85,63.43Z"/></svg>