<svg id="Layer_1" data-name="Layer 1" xmlns="http://www.w3.org/2000/svg" viewBox="0 0 96 96"><defs><style>.cls-1{fill:none;stroke:#1ca5f2;stroke-linecap:round;stroke-linejoin:round;stroke-width:2px;}.cls-2{fill:#30d158;}</style></defs><path class="cls-1" d="M8.46,83.25V48.35a7.22,7.22,0,0,1,.06-.92"/><path class="cls-1" d="M79.38,43.65l.22.11,0,0a3.27,3.27,0,0,1,.77.57h0a3.68,3.68,0,0,1,.75,1,4,4,0,0,1,.4,1.68,3.77,3.77,0,0,1-1,2.62l-1.45,1.07c-.42.32-.83.63-1.13.84l-.07,0-.31.23-.1.08L58.74,65.84"/><path class="cls-1" d="M31.31,65.85,12.47,51.91,11.3,51c-.4-.3-.76-.58-.86-.63l-.85-.64-.1-.07a3.76,3.76,0,0,1-1-2,.2.2,0,0,1,0-.11.3.3,0,0,1,0-.13,1.88,1.88,0,0,1,0-.34,4,4,0,0,1,.83-2.41,3,3,0,0,1,.39-.41,2.92,2.92,0,0,1,.63-.48l.18-.1"/><path class="cls-1" d="M66.07,88.34H12.13A3.78,3.78,0,0,1,9.49,82S43.16,57,43.61,56.83a3.57,3.57,0,0,1,2.88,0C46.74,57,58.4,65.58,68,72.69"/><path class="cls-1" d="M30.45,29c-9.61,7.09-21,15.51-21,15.51a3.79,3.79,0,0,0-.61,4.3,3.74,3.74,0,0,0,1.57,1.65c.23.12,1.77,1.39,2,1.5"/><path class="cls-1" d="M78,51.61c-1.91,1.42,2.42-1.74,2.76-2.17a4.12,4.12,0,0,0,.69-1.39,3.78,3.78,0,0,0-.88-3.59S69.18,36,59.58,29"/><polyline class="cls-1" points="38.24 35.28 38.24 23.27 28.3 14.78 28.3 17.28 28.3 14.78 31.3 14.78"/><polyline class="cls-1" points="50.66 35.28 50.66 23.27 60.59 14.78 60.59 17.28 60.59 14.78 57.6 14.78"/><polyline class="cls-1" points="45.02 36.07 45.02 14.54 43.05 16.52 45.02 14.54 47 16.53"/><polyline class="cls-1" points="28.3 61.28 28.3 39.37 61.63 39.37 61.63 61.58"/><line class="cls-1" x1="45.7" y1="46.74" x2="56.45" y2="46.74"/><line class="cls-1" x1="45.7" y1="52.89" x2="56.45" y2="52.89"/><line class="cls-1" x1="81.56" y1="47.42" x2="81.56" y2="65.45"/><ellipse class="cls-1" cx="36.16" cy="48.05" rx="2.03" ry="2.05"/><path class="cls-1" d="M36,54.07H32.09a4.06,4.06,0,1,1,8.12,0Z"/><path class="cls-2" d="M80.29,69a9.5,9.5,0,1,0,9.5,9.5A9.51,9.51,0,0,0,80.29,69Zm4.33,9.6a.86.86,0,0,1-.86.87H81.25V82a.87.87,0,0,1-.86.86H80.2a.87.87,0,0,1-.87-.86V79.44H76.82a.86.86,0,0,1-.86-.87v-.19a.86.86,0,0,1,.86-.87h2.51V75a.87.87,0,0,1,.87-.88h.19a.87.87,0,0,1,.86.88v2.53h2.51a.86.86,0,0,1,.86.87Z"/><path class="cls-1" d="M80.29,69a9.5,9.5,0,1,0,9.5,9.5A9.51,9.51,0,0,0,80.29,69Z"/></svg>