<svg id="Layer_1" data-name="Layer 1" xmlns="http://www.w3.org/2000/svg" viewBox="0 0 96 96"><defs><style>.cls-1{fill:none;stroke:#1ca5f2;stroke-linecap:round;stroke-linejoin:round;stroke-width:2px;}.cls-2{fill:#1ca5f2;}.cls-3{fill:#30d158;}</style></defs><path class="cls-1" d="M56.72,88H26.09a4,4,0,0,1-3.9-4V12a4,4,0,0,1,3.9-4H65a4,4,0,0,1,3.9,4V65"/><polyline class="cls-1" points="54.19 73.33 28.03 73.33 28.03 17.33 63.07 17.33 63.07 65.62"/><ellipse class="cls-1" cx="45.55" cy="80.95" rx="3.89" ry="4"/><path class="cls-2" d="M51,44.47A6.64,6.64,0,0,1,53.72,39,6.56,6.56,0,0,0,49,36.92a6.34,6.34,0,0,0-3.29.92.35.35,0,0,1-.37,0A6.42,6.42,0,0,0,42.09,37c-3.81,0-6.9,3.38-6.9,7.55s3.09,10.93,6.9,10.93a6.37,6.37,0,0,0,3.42-1,.11.11,0,0,1,.11,0,6.3,6.3,0,0,0,3.36,1c2.36,0,4.44-1.36,5.68-4.91A6.5,6.5,0,0,1,51,44.47Z"/><ellipse class="cls-2" cx="47.85" cy="34.14" rx="2.79" ry="1.18" transform="translate(-9.93 44.96) rotate(-46.11)"/><path class="cls-3" d="M67.05,68.08a9.5,9.5,0,1,0,9.5,9.5A9.5,9.5,0,0,0,67.05,68.08Zm4.33,9.59a.86.86,0,0,1-.86.88H68v2.53a.87.87,0,0,1-.86.87H67a.87.87,0,0,1-.87-.87V78.55h-2.5a.87.87,0,0,1-.87-.88v-.19a.86.86,0,0,1,.87-.86h2.5V74.08a.87.87,0,0,1,.87-.87h.19a.87.87,0,0,1,.86.87v2.54h2.51a.86.86,0,0,1,.86.86Z"/><path class="cls-1" d="M67.05,68.08a9.5,9.5,0,1,0,9.5,9.5A9.5,9.5,0,0,0,67.05,68.08Z"/></svg>