<svg id="Layer_1" data-name="Layer 1" xmlns="http://www.w3.org/2000/svg" viewBox="0 0 96 96"><defs><style>.cls-1{fill:none;stroke-linecap:round;stroke-linejoin:round;stroke-width:2px;}.cls-1,.cls-2{stroke:#1ca5f2;}.cls-2{fill:#007aff;stroke-miterlimit:10;isolation:isolate;opacity:0.17;}</style></defs><rect class="cls-1" x="29.2" y="65.02" width="37.09" height="5"/><path class="cls-1" d="M83,46.32a32.82,32.82,0,0,1-1.1,8.46H13.69a32.82,32.82,0,0,1-1.1-8.46c0-18.78,15.76-34,35.2-34S83,27.54,83,46.32Z"/><ellipse class="cls-1" cx="47.79" cy="46.32" rx="7.04" ry="6.8"/><ellipse class="cls-1" cx="47.79" cy="46.32" rx="7.04" ry="6.8"/><ellipse class="cls-2" cx="47.79" cy="46.32" rx="7.04" ry="6.8"/><path class="cls-1" d="M3.74,54.78V80.32h88V54.78ZM29.2,70V65H66.29v5Z"/><rect class="cls-1" x="29.2" y="65.02" width="37.09" height="5"/><rect class="cls-1" x="29.2" y="65.02" width="37.09" height="5"/></svg>