<svg id="Layer_1" data-name="Layer 1" xmlns="http://www.w3.org/2000/svg" viewBox="0 0 96 96"><defs><style>.cls-1,.cls-2{fill:none;stroke-width:2px;}.cls-1,.cls-2,.cls-3{stroke:#1ca5f2;}.cls-1{stroke-linecap:round;stroke-linejoin:round;}.cls-2,.cls-3{stroke-miterlimit:10;}.cls-3{fill:#86c9f7;opacity:0.1;}.cls-4{fill:#ec5544;}</style></defs><path class="cls-1" d="M16,54.8a33.36,33.36,0,0,1-1.07-8.41,34.28,34.28,0,0,1,68.55,0,33.36,33.36,0,0,1-1.07,8.41"/><ellipse class="cls-2" cx="49.16" cy="46.39" rx="6.86" ry="6.76"/><ellipse class="cls-3" cx="49.16" cy="46.39" rx="6.86" ry="6.76"/><polyline class="cls-1" points="63.58 80.19 62.02 80.19 6.27 80.19 6.27 54.8 91.96 54.8 91.96 58.71"/><line class="cls-1" x1="68.09" y1="80.19" x2="62.02" y2="80.19"/><rect class="cls-1" x="31.01" y="65.6" width="36.11" height="4.97"/><path class="cls-4" d="M83.37,61.47a9.95,9.95,0,1,0,10,10A10,10,0,0,0,83.37,61.47ZM86.84,74.3a.53.53,0,0,1,0,.72l-.17.17a.5.5,0,0,1-.71,0l-2.71-2.75-2.71,2.75a.48.48,0,0,1-.7,0L79.67,75a.51.51,0,0,1,0-.72l2.71-2.74-2.71-2.75a.51.51,0,0,1,0-.72l.17-.17a.48.48,0,0,1,.7,0l2.71,2.74L86,67.92a.5.5,0,0,1,.71,0l.17.17a.53.53,0,0,1,0,.72l-2.72,2.75Z"/><ellipse class="cls-1" cx="83.37" cy="71.42" rx="9.91" ry="10.03" transform="matrix(0.85, -0.53, 0.53, 0.85, -25.23, 55.36)"/></svg>