<svg id="Layer_1" data-name="Layer 1" xmlns="http://www.w3.org/2000/svg" viewBox="0 0 96 96"><defs><style>.cls-1{fill:#fff;stroke-miterlimit:10;}.cls-1,.cls-2{stroke:#1ca5f2;stroke-linecap:round;stroke-width:2px;}.cls-2{fill:none;stroke-linejoin:round;}.cls-3{fill:#30d158;}</style></defs><path class="cls-1" d="M6.39,82.65V47.75a7.22,7.22,0,0,1,.06-.92"/><path class="cls-2" d="M77.3,43.05l.2.09h0a3.5,3.5,0,0,1,.82.61,3.68,3.68,0,0,1,.75,1,4,4,0,0,1,.4,1.68,3.77,3.77,0,0,1-1,2.62L77,50.17c-.42.32-.83.63-1.13.84l-.06.05h0l-.15.1-.23.18,0,0c-4.21,3.11-12,8.9-18.76,13.87"/><path class="cls-2" d="M29.23,65.25,10.39,51.31l-1.17-.87c-.4-.3-.76-.58-.86-.63l-.85-.64-.1-.07a3.77,3.77,0,0,1-.92-1.78,1.29,1.29,0,0,1,0-.19.51.51,0,0,1,0-.13v0a2,2,0,0,1,0-.35.14.14,0,0,1,0-.09,3.94,3.94,0,0,1,.82-2.41,3,3,0,0,1,.39-.41,2.37,2.37,0,0,1,.57-.43l.05,0a.82.82,0,0,1,.2-.12"/><path class="cls-2" d="M28.37,28.35c-9.61,7.09-21,15.51-21,15.51a3.81,3.81,0,0,0-.61,4.3,3.74,3.74,0,0,0,1.57,1.65c.23.12,1.77,1.39,2,1.5"/><path class="cls-2" d="M75.9,51c-1.91,1.42,2.42-1.74,2.76-2.17a3.94,3.94,0,0,0,.69-1.39,3.78,3.78,0,0,0-.88-3.59s-11.36-8.42-21-15.51"/><polyline class="cls-2" points="36.16 34.68 36.16 22.68 26.23 14.18 26.23 16.68 26.23 14.18 29.22 14.18"/><polyline class="cls-2" points="48.58 34.68 48.58 22.68 58.51 14.18 58.51 16.68 58.51 14.18 55.52 14.18"/><polyline class="cls-2" points="42.95 35.47 42.95 13.94 40.98 15.92 42.95 13.94 44.92 15.93"/><polyline class="cls-2" points="26.23 60.68 26.23 38.77 59.55 38.77 59.55 60.98"/><line class="cls-2" x1="79.49" y1="46.82" x2="79.49" y2="64.85"/><ellipse class="cls-2" cx="43.2" cy="46.47" rx="4.06" ry="4.1"/><path class="cls-2" d="M51.32,59.15H48.39c-2.36-1.74-3.89-2.85-4-2.89a3.54,3.54,0,0,0-2.87,0c-.1,0-1.65,1.17-4,2.92H35.07a8.13,8.13,0,1,1,16.25,0Z"/><path class="cls-2" d="M65.93,72.09l-9.27-6.85c-3.16-2.33-6.07-4.48-8.27-6.09-2.36-1.74-3.89-2.85-4-2.89a3.54,3.54,0,0,0-2.87,0c-.1,0-1.65,1.17-4,2.92-2.2,1.62-5.12,3.76-8.27,6.1h0C19.44,72.46,7.41,81.38,7.41,81.38a3.78,3.78,0,0,0,2.64,6.36H64"/><path class="cls-3" d="M78.29,69a9.5,9.5,0,1,0,9.5,9.5A9.51,9.51,0,0,0,78.29,69Zm4.33,9.6a.86.86,0,0,1-.86.87H79.25V82a.87.87,0,0,1-.86.86H78.2a.87.87,0,0,1-.87-.86V79.44H74.82a.86.86,0,0,1-.86-.87v-.19a.86.86,0,0,1,.86-.87h2.51V75a.87.87,0,0,1,.87-.88h.19a.87.87,0,0,1,.86.88v2.53h2.51a.86.86,0,0,1,.86.87Z"/><path class="cls-2" d="M78.29,69a9.5,9.5,0,1,0,9.5,9.5A9.51,9.51,0,0,0,78.29,69Z"/></svg>