<svg id="Layer_1" data-name="Layer 1" xmlns="http://www.w3.org/2000/svg" viewBox="0 0 96 96"><defs><style>.cls-1{fill:none;stroke:#1ca5f2;stroke-linecap:round;stroke-linejoin:round;stroke-width:2px;}.cls-2{fill:#ec5544;}</style></defs><path class="cls-1" d="M84.06,27.27a5.71,5.71,0,0,1,.31,1.86V47"/><path class="cls-1" d="M29.65,48.5,6.28,66.23l0,0a4.3,4.3,0,0,0-.85,1.43V29.44a.16.16,0,0,1,.26-.12c1.92,1.82,14.25,11.54,24,18.93A.16.16,0,0,1,29.65,48.5Z"/><path class="cls-1" d="M59.44,48.37c3.17,2.39,6.55,5,9.74,7.38"/><path class="cls-1" d="M5.41,67.68a4.15,4.15,0,0,0,3.71,5.6H73.43"/><path class="cls-1" d="M84.06,27.27A4.2,4.2,0,0,1,83,30.5S46.63,58.13,46.15,58.35a3.75,3.75,0,0,1-3.11,0c-.18-.09-6.15-4.59-13.23-9.94L6.27,30.5a4.25,4.25,0,0,1-.86-1.45,5.57,5.57,0,0,1,5.47-5.58h68A5.48,5.48,0,0,1,84.06,27.27Z"/><path class="cls-2" d="M82.4,52.39a9.95,9.95,0,1,0,10,9.94A10,10,0,0,0,82.4,52.39Zm3.47,12.82a.51.51,0,0,1,0,.72l-.17.18a.51.51,0,0,1-.71,0l-2.7-2.75-2.71,2.75a.51.51,0,0,1-.71,0l-.16-.18a.49.49,0,0,1,0-.72l2.7-2.74-2.7-2.75a.49.49,0,0,1,0-.72l.16-.16a.5.5,0,0,1,.71,0l2.71,2.74L85,58.84a.5.5,0,0,1,.71,0l.17.16a.51.51,0,0,1,0,.72l-2.71,2.75Z"/><ellipse class="cls-1" cx="82.41" cy="62.33" rx="9.91" ry="10.03" transform="matrix(0.85, -0.53, 0.53, 0.85, -20.54, 53.45)"/></svg>