<svg id="Layer_1" data-name="Layer 1" xmlns="http://www.w3.org/2000/svg" viewBox="0 0 96 96"><defs><style>.cls-1{fill:none;stroke-linecap:round;stroke-linejoin:round;stroke-width:2px;}.cls-1,.cls-3,.cls-4{stroke:#1ca5f2;}.cls-2,.cls-4{opacity:0.1;}.cls-3,.cls-4{fill:#86c9f7;stroke-miterlimit:10;}.cls-5{fill:#30d158;}</style></defs><polyline class="cls-1" points="39.14 61.78 8.57 61.78 8.57 11.38 49.96 11.38 49.96 30.04"/><rect class="cls-1" x="26.14" y="34.09" width="5.86" height="6.25"/><polyline class="cls-1" points="41.4 40.34 39.14 40.34 39.14 34.09 42.24 34.09"/><rect class="cls-1" x="14.23" y="34.09" width="5.86" height="6.25"/><g class="cls-2"><rect class="cls-3" x="26.14" y="34.09" width="5.86" height="6.25"/><polyline class="cls-3" points="39.14 40.34 39.14 34.09 42.24 34.09"/><rect class="cls-3" x="14.23" y="34.09" width="5.86" height="6.25"/></g><polyline class="cls-1" points="71.96 86.53 41.68 86.53 41.68 34.02 83.07 34.02 83.07 62.8"/><rect class="cls-1" x="25.07" y="49.9" width="9.92" height="11.88"/><rect class="cls-1" x="59.25" y="41.65" width="5.86" height="6.25"/><rect class="cls-1" x="72.25" y="41.65" width="5.86" height="6.25"/><rect class="cls-1" x="47.34" y="41.65" width="5.86" height="6.25"/><rect class="cls-1" x="59.25" y="58.45" width="5.86" height="6.25"/><rect class="cls-1" x="47.34" y="58.45" width="5.86" height="6.25"/><rect class="cls-1" x="71.16" y="58.45" width="5.86" height="6.25"/><rect class="cls-1" x="59.25" y="58.45" width="5.86" height="6.25"/><rect class="cls-1" x="26.14" y="17.29" width="5.86" height="6.25"/><rect class="cls-1" x="39.14" y="17.29" width="5.86" height="6.25"/><rect class="cls-1" x="14.23" y="17.29" width="5.86" height="6.25"/><rect class="cls-4" x="26.14" y="17.29" width="5.86" height="6.25"/><rect class="cls-4" x="39.14" y="17.29" width="5.86" height="6.25"/><rect class="cls-4" x="14.23" y="17.29" width="5.86" height="6.25"/><rect class="cls-1" x="55.64" y="74.6" width="9.92" height="11.88"/><path class="cls-5" d="M83.47,66.54a10,10,0,1,0,10,10A10,10,0,0,0,83.47,66.54ZM88,76.64a.91.91,0,0,1-.91.92H84.48v2.67a.91.91,0,0,1-.91.91h-.2a.91.91,0,0,1-.91-.91V77.56H79.82a.91.91,0,0,1-.91-.92v-.2a.91.91,0,0,1,.91-.91h2.64V72.86a.92.92,0,0,1,.91-.92h.2a.92.92,0,0,1,.91.92v2.67h2.64a.91.91,0,0,1,.91.91Z"/><path class="cls-1" d="M83.47,66.54a10,10,0,1,0,10,10A10,10,0,0,0,83.47,66.54Z"/></svg>