<svg id="Layer_1" data-name="Layer 1" xmlns="http://www.w3.org/2000/svg" viewBox="0 0 96 96"><defs><style>.cls-1{fill:none;stroke:#1ca5f2;stroke-linecap:round;stroke-linejoin:round;stroke-width:2px;}.cls-2{fill:#ec5544;}</style></defs><path class="cls-1" d="M65.3,52.76a36.87,36.87,0,0,0-20.39-6c-19.43,0-35.18,14.65-35.18,32.72H59.49"/><ellipse class="cls-1" cx="44.07" cy="30.34" rx="16.69" ry="16.36"/><path class="cls-1" d="M43.53,57.53l-6.08,8.25c-.42.56,1-18.69,1.79-18.69h10c.82,0,2.65,19.25,2.24,18.69l-6.08-8.25A1.23,1.23,0,0,0,43.53,57.53Z"/><path class="cls-2" d="M72.4,58.39a9.95,9.95,0,1,0,10,9.94A10,10,0,0,0,72.4,58.39Zm3.47,12.82a.51.51,0,0,1,0,.72l-.17.18a.51.51,0,0,1-.71,0l-2.7-2.75-2.71,2.75a.51.51,0,0,1-.71,0l-.16-.18a.49.49,0,0,1,0-.72l2.7-2.74-2.7-2.75a.49.49,0,0,1,0-.72l.16-.16a.5.5,0,0,1,.71,0l2.71,2.74L75,64.84a.5.5,0,0,1,.71,0l.17.16a.51.51,0,0,1,0,.72l-2.71,2.75Z"/><ellipse class="cls-1" cx="72.41" cy="68.33" rx="9.91" ry="10.03" transform="matrix(0.85, -0.53, 0.53, 0.85, -25.27, 49.04)"/></svg>