<svg id="Layer_1" data-name="Layer 1" xmlns="http://www.w3.org/2000/svg" viewBox="0 0 96 96"><defs><style>.cls-1{fill:none;stroke:#ff8600;stroke-miterlimit:10;stroke-width:3px;}</style></defs><g id="Group_4201" data-name="Group 4201"><path id="Path_6815" data-name="Path 6815" class="cls-1" d="M68.22,29.56a8.43,8.43,0,0,0,12,0l7.22,7.22a2.93,2.93,0,0,1,0,3.85L41.26,86.85a2.91,2.91,0,0,1-3.85,0l-7.23-7.22a8.51,8.51,0,0,0-12-12h0l-7.23-7.23a2.93,2.93,0,0,1,0-3.85L57.15,10.3a2.93,2.93,0,0,1,3.85,0h0l7.22,7.22A8.43,8.43,0,0,0,68.22,29.56Z"/><line id="Line_2033" data-name="Line 2033" class="cls-1" x1="50.41" y1="28.11" x2="45.11" y2="22.34"/><line id="Line_2034" data-name="Line 2034" class="cls-1" x1="64.37" y1="41.6" x2="56.18" y2="33.41"/><line id="Line_2035" data-name="Line 2035" class="cls-1" x1="75.44" y1="52.67" x2="69.67" y2="47.37"/></g></svg>