<svg id="Layer_1" data-name="Layer 1" xmlns="http://www.w3.org/2000/svg" viewBox="0 0 96 96"><defs><style>.cls-1{fill:#fff;stroke-miterlimit:10;}.cls-1,.cls-2{stroke:#1ca5f2;stroke-linecap:round;stroke-width:2px;}.cls-2{fill:none;stroke-linejoin:round;}.cls-3{fill:#30d158;}</style></defs><path class="cls-1" d="M6.48,82.25V47.35a7.22,7.22,0,0,1,.06-.92"/><path class="cls-2" d="M77.4,42.65l.22.11,0,0a3.27,3.27,0,0,1,.77.57h0a3.68,3.68,0,0,1,.75,1,4,4,0,0,1,.4,1.68,3.77,3.77,0,0,1-1,2.62l-1.45,1.07c-.42.32-.83.63-1.13.84l-.07,0-.31.23-.1.08L56.76,64.84"/><path class="cls-2" d="M29.33,64.85,10.49,50.91,9.32,50c-.4-.3-.76-.58-.86-.63l-.85-.64-.1-.07a3.76,3.76,0,0,1-1-2,.2.2,0,0,1,0-.11,3.27,3.27,0,0,1,0-.54,2.26,2.26,0,0,1,0-.26,4.07,4.07,0,0,1,.82-2.08,3,3,0,0,1,.39-.41,2.37,2.37,0,0,1,.57-.43l.05,0a.82.82,0,0,1,.2-.12"/><path class="cls-2" d="M64.09,87.34H10.15A3.78,3.78,0,0,1,7.51,81S41.18,56,41.63,55.83a3.57,3.57,0,0,1,2.88,0C44.76,56,56.42,64.58,66,71.69"/><path class="cls-2" d="M28.47,28C18.86,35,7.5,43.46,7.5,43.46a3.81,3.81,0,0,0-.61,4.3,3.74,3.74,0,0,0,1.57,1.65c.23.12,1.77,1.39,2,1.5"/><path class="cls-2" d="M76,50.61c-1.91,1.42,2.42-1.74,2.76-2.17a3.94,3.94,0,0,0,.69-1.39,3.78,3.78,0,0,0-.88-3.59S67.21,35,57.6,28"/><polyline class="cls-2" points="36.26 34.28 36.26 22.27 26.33 13.78 26.33 16.28 26.33 13.78 29.32 13.78"/><polyline class="cls-2" points="48.68 34.28 48.68 22.27 58.61 13.78 58.61 16.28 58.61 13.78 55.62 13.78"/><polyline class="cls-2" points="43.04 35.07 43.04 13.54 41.07 15.52 43.04 13.54 45.02 15.53"/><polyline class="cls-2" points="26.33 60.28 26.33 38.37 59.65 38.37 59.65 60.58"/><line class="cls-2" x1="43.72" y1="45.74" x2="54.47" y2="45.74"/><line class="cls-2" x1="43.72" y1="51.89" x2="54.47" y2="51.89"/><line class="cls-2" x1="79.58" y1="46.42" x2="79.58" y2="64.45"/><ellipse class="cls-2" cx="34.18" cy="47.05" rx="2.03" ry="2.05"/><path class="cls-2" d="M34,53.07H30.11a4.06,4.06,0,1,1,8.12,0Z"/><path class="cls-3" d="M78.29,69a9.5,9.5,0,1,0,9.5,9.5A9.51,9.51,0,0,0,78.29,69Zm4.33,9.6a.86.86,0,0,1-.86.87H79.25V82a.87.87,0,0,1-.86.86H78.2a.87.87,0,0,1-.87-.86V79.44H74.82a.86.86,0,0,1-.86-.87v-.19a.86.86,0,0,1,.86-.87h2.51V75a.87.87,0,0,1,.87-.88h.19a.87.87,0,0,1,.86.88v2.53h2.51a.86.86,0,0,1,.86.87Z"/><path class="cls-2" d="M78.29,69a9.5,9.5,0,1,0,9.5,9.5A9.51,9.51,0,0,0,78.29,69Z"/></svg>