<svg id="Layer_1" data-name="Layer 1" xmlns="http://www.w3.org/2000/svg" viewBox="0 0 96 96"><defs><style>.cls-1{fill:none;stroke:#1ca5f2;stroke-linecap:round;stroke-linejoin:round;stroke-width:2px;}.cls-2{fill:#30d158;}</style></defs><path class="cls-1" d="M66.51,52.51a36.85,36.85,0,0,0-20.39-6c-19.43,0-35.18,14.66-35.18,32.73H59.71"/><ellipse class="cls-1" cx="45.29" cy="30.1" rx="16.69" ry="16.36"/><path class="cls-1" d="M44.42,57.47l-6.08,8.25c-.42.56,1-18.69,1.79-18.69h10c.82,0,2.65,19.25,2.24,18.69l-6.08-8.25A1.23,1.23,0,0,0,44.42,57.47Z"/><path class="cls-1" d="M44.42,57.47l-6.08,8.25c-.42.56,1-18.69,1.79-18.69h10c.82,0,2.65,19.25,2.24,18.69l-6.08-8.25A1.23,1.23,0,0,0,44.42,57.47Z"/><path class="cls-2" d="M72.47,57.54a10,10,0,1,0,10,10A10,10,0,0,0,72.47,57.54ZM77,67.64a.91.91,0,0,1-.91.92H73.48v2.67a.91.91,0,0,1-.91.91h-.2a.91.91,0,0,1-.91-.91V68.56H68.82a.91.91,0,0,1-.91-.92v-.2a.91.91,0,0,1,.91-.91h2.64V63.86a.92.92,0,0,1,.91-.92h.2a.92.92,0,0,1,.91.92v2.67h2.64a.91.91,0,0,1,.91.91Z"/><path class="cls-1" d="M72.47,57.54a10,10,0,1,0,10,10A10,10,0,0,0,72.47,57.54Z"/></svg>