<svg id="Layer_1" data-name="Layer 1" xmlns="http://www.w3.org/2000/svg" viewBox="0 0 96 96"><defs><style>.cls-1{fill:none;stroke:#1ca5f2;stroke-linecap:round;stroke-linejoin:round;stroke-width:2px;}.cls-2{fill:#ff9500;}</style></defs><path class="cls-1" d="M83.06,27.27a5.71,5.71,0,0,1,.31,1.86V47"/><path class="cls-1" d="M28.65,48.5,5.28,66.23l0,0a4.3,4.3,0,0,0-.85,1.43V29.44a.16.16,0,0,1,.26-.12c1.92,1.82,14.25,11.54,24,18.93A.16.16,0,0,1,28.65,48.5Z"/><path class="cls-1" d="M58.44,48.37c3.17,2.39,6.55,5,9.74,7.38"/><path class="cls-1" d="M4.41,67.68a4.15,4.15,0,0,0,3.71,5.6H72.43"/><path class="cls-1" d="M83.06,27.27A4.2,4.2,0,0,1,82,30.5S45.63,58.13,45.15,58.35a3.75,3.75,0,0,1-3.11,0c-.18-.09-6.15-4.59-13.23-9.94L5.27,30.5a4.25,4.25,0,0,1-.86-1.45,5.57,5.57,0,0,1,5.47-5.58h68A5.48,5.48,0,0,1,83.06,27.27Z"/><path class="cls-2" d="M82.13,52a10,10,0,1,0,10,10A10,10,0,0,0,82.13,52ZM80,63.21l-.63.43-.73-1.14-.72,1.11-.64-.43.87-1.06-1.26-.35.23-.7,1.25.48-.08-1.37h.79L79,61.58l1.22-.49.23.73-1.28.34Zm3.72,0-.64.43-.73-1.14-.72,1.11L81,63.18l.86-1.06-1.26-.35.24-.7,1.25.48L82,60.18h.79l-.08,1.4,1.21-.49.24.73-1.28.34Zm3.71,0-.64.43-.72-1.14-.73,1.11-.63-.43.86-1.06-1.25-.35.24-.7,1.23.48-.07-1.37h.78l-.07,1.4,1.21-.49.23.73-1.28.34Z"/><circle class="cls-1" cx="82.14" cy="61.95" r="10"/></svg>