<svg id="Layer_1" data-name="Layer 1" xmlns="http://www.w3.org/2000/svg" viewBox="0 0 96 96"><defs><style>.cls-1{fill:none;stroke-linecap:round;stroke-linejoin:round;stroke-width:2px;}.cls-1,.cls-2{stroke:#1ca5f2;}.cls-2{fill:#86c9f7;stroke-miterlimit:10;opacity:0.1;}.cls-3{fill:#30d158;}</style></defs><path class="cls-1" d="M12.67,73.32v-44a4.43,4.43,0,0,1,4.42-4.44H79a4.43,4.43,0,0,1,4.42,4.44V55.78"/><path class="cls-1" d="M79.09,53V32.24A2.22,2.22,0,0,0,76.88,30H19.4a2.22,2.22,0,0,0-2.21,2.23V67.81A2.22,2.22,0,0,0,19.4,70H66.77"/><path class="cls-1" d="M66.94,79.76H8.16a3.92,3.92,0,0,1-3.91-3.93V73.32H67"/><path class="cls-1" d="M40.37,73.32h15a0,0,0,0,1,0,0v2.22a1,1,0,0,1-1,1h-13a1,1,0,0,1-1-1V73.32A0,0,0,0,1,40.37,73.32Z"/><path class="cls-2" d="M40.37,73.32h15a0,0,0,0,1,0,0v2.22a1,1,0,0,1-1,1h-13a1,1,0,0,1-1-1V73.32A0,0,0,0,1,40.37,73.32Z"/><path class="cls-3" d="M79.85,59.43a10,10,0,1,0,10,10A10,10,0,0,0,79.85,59.43Zm4.56,10.1a.91.91,0,0,1-.91.92H80.86v2.67A.91.91,0,0,1,80,74h-.2a.91.91,0,0,1-.91-.91V70.45H76.2a.91.91,0,0,1-.91-.92v-.2a.91.91,0,0,1,.91-.91h2.64V65.75a.92.92,0,0,1,.91-.92H80a.92.92,0,0,1,.91.92v2.67H83.5a.91.91,0,0,1,.91.91Z"/><path class="cls-1" d="M79.85,59.43a10,10,0,1,0,10,10A10,10,0,0,0,79.85,59.43Z"/></svg>