<svg id="Layer_1" data-name="Layer 1" xmlns="http://www.w3.org/2000/svg" viewBox="0 0 96 96"><defs><style>.cls-1{fill:none;stroke-linecap:round;stroke-linejoin:round;stroke-width:2px;}.cls-1,.cls-2{stroke:#1ca5f2;}.cls-2{fill:#007aff;stroke-miterlimit:10;isolation:isolate;opacity:0.17;}.cls-3{fill:#ff9500;}</style></defs><path class="cls-1" d="M57.85,19.4a8.75,8.75,0,0,1-3,6.55,8.94,8.94,0,0,1-12.09-.17,8.76,8.76,0,0,1-2.76-6.38,8.9,8.9,0,0,1,17.8,0Z"/><path class="cls-1" d="M57.85,77.76a8.9,8.9,0,0,1-17.8,0A8.73,8.73,0,0,1,41.1,73.6a8.95,8.95,0,0,1,15.66-.08A8.68,8.68,0,0,1,57.85,77.76Z"/><line class="cls-1" x1="42.8" y1="25.78" x2="20.85" y2="52.69"/><line class="cls-1" x1="71.78" y1="46.63" x2="54.91" y2="25.96"/><line class="cls-1" x1="70.52" y1="66.08" x2="56.77" y2="73.52"/><line class="cls-1" x1="41.09" y1="73.6" x2="23.15" y2="64.11"/><line class="cls-1" x1="48.95" y1="68.94" x2="48.95" y2="28.22"/><ellipse class="cls-1" cx="15.11" cy="59.65" rx="8.92" ry="8.82"/><ellipse class="cls-2" cx="15.11" cy="59.65" rx="8.92" ry="8.82"/><path class="cls-3" d="M81.29,46.51a10.78,10.78,0,1,0,10.9,10.78A10.83,10.83,0,0,0,81.29,46.51ZM79,58.65l-.69.47-.8-1.23-.78,1.19-.7-.46,1-1.14-1.37-.38.25-.76,1.36.52-.09-1.47H78l-.09,1.5,1.32-.52.26.78-1.4.37Zm4,0-.7.47-.79-1.23-.79,1.19-.69-.46L81,57.48l-1.37-.38.26-.76,1.36.52-.09-1.47H82l-.09,1.5,1.32-.52.26.78-1.4.37Zm4,0-.69.47-.79-1.23-.79,1.19-.69-.46L85,57.48l-1.37-.38.26-.76,1.35.52-.08-1.47h.85L86,56.89l1.32-.52.25.78-1.39.37Z"/><ellipse class="cls-1" cx="81.29" cy="57.29" rx="10.9" ry="10.78"/></svg>