<svg id="Layer_1" data-name="Layer 1" xmlns="http://www.w3.org/2000/svg" viewBox="0 0 96 96"><defs><style>.cls-1{fill:#ff9500;}.cls-2,.cls-3{fill:none;stroke-width:2px;}.cls-2,.cls-3,.cls-4{stroke:#1ca5f2;}.cls-2{stroke-linecap:round;stroke-linejoin:round;}.cls-3,.cls-4{stroke-miterlimit:10;}.cls-4{fill:#86c9f7;opacity:0.1;}</style></defs><path class="cls-1" d="M82.25,60.35A10.59,10.59,0,1,0,92.84,70.94,10.59,10.59,0,0,0,82.25,60.35ZM85,70.49H83.06v3.93a.81.81,0,0,1-.81.81.8.8,0,0,1-.8-.81V70.49H79.52a.28.28,0,0,1-.24-.4L82,66.79a.27.27,0,0,1,.47,0l2.73,3.3A.27.27,0,0,1,85,70.49Z"/><path class="cls-2" d="M16.26,54.78a33.88,33.88,0,1,1,65.64,0"/><circle class="cls-3" cx="49.08" cy="46.34" r="6.78"/><circle class="cls-4" cx="49.08" cy="46.34" r="6.78"/><polyline class="cls-2" points="63.32 80.24 61.79 80.24 6.68 80.24 6.68 54.78 91.38 54.78 91.38 58.7"/><line class="cls-2" x1="67.79" y1="80.24" x2="61.79" y2="80.24"/><rect class="cls-2" x="31.14" y="65.61" width="35.7" height="4.98"/><ellipse class="cls-2" cx="82.25" cy="70.94" rx="10.59" ry="10.59"/></svg>