<svg id="Layer_1" data-name="Layer 1" xmlns="http://www.w3.org/2000/svg" viewBox="0 0 96 96"><defs><style>.cls-1{fill:#ff9500;}.cls-2{fill:none;stroke-linecap:round;stroke-linejoin:round;stroke-width:2px;}.cls-2,.cls-3{stroke:#1ca5f2;}.cls-3{fill:#86c9f7;stroke-miterlimit:10;opacity:0.1;}</style></defs><path class="cls-1" d="M69.81,61.07a9.57,9.57,0,1,0,9.68,9.56A9.62,9.62,0,0,0,69.81,61.07Zm.62,14-4.62-3.44,2-3,4.62,3.44Zm2.42-3.68-4.36-3.11,1-1.34,1.61,1.15,1.13-1.59a.54.54,0,0,1,.75-.13.55.55,0,0,1,.12.76l-1.13,1.58L73.81,70Z"/><ellipse class="cls-2" cx="69.81" cy="70.63" rx="9.68" ry="9.57"/><path class="cls-2" d="M80.77,18H43.17c-3.5,0-6.37,3.74-6.37,8.3V41.1A9,9,0,0,0,40,48.31l-.23,4.08c0,.35.27.59.51.42L43,49.39H80.77c3.51,0,6.38-3.73,6.38-8.3V26.26C87.15,21.7,84.28,18,80.77,18Z"/><ellipse class="cls-2" cx="54.23" cy="35.42" rx="3.87" ry="3.88"/><ellipse class="cls-2" cx="69.72" cy="35.42" rx="3.87" ry="3.88"/><ellipse class="cls-3" cx="54.23" cy="35.42" rx="3.87" ry="3.88"/><ellipse class="cls-3" cx="69.72" cy="35.42" rx="3.87" ry="3.88"/><line class="cls-2" x1="54.23" y1="39.29" x2="69.72" y2="39.29"/><path class="cls-2" d="M24.52,33.77l2.85,14.86a10.68,10.68,0,0,1-5.84,3A30.31,30.31,0,0,0,41.21,68.91a9.16,9.16,0,0,1,3.06-5.4l12.92,1.65.85.11,1.07.14"/><path class="cls-2" d="M24.52,33.77a10.48,10.48,0,0,0-3.31-1,10,10,0,0,0-1.74-.12c-5.79.1-10.41,4.44-10.32,9.71.37,21.07,19.42,37.84,42.58,37.48a11.15,11.15,0,0,0,5.74-1.67,11.57,11.57,0,0,0,1.05-.74,2.28,2.28,0,0,0,.53-1.11"/></svg>