<svg id="Layer_1" data-name="Layer 1" xmlns="http://www.w3.org/2000/svg" viewBox="0 0 96 96"><defs><style>.cls-1{fill:#ff9500;}.cls-2{fill:none;stroke-linecap:round;stroke-linejoin:round;stroke-width:2px;}.cls-2,.cls-3{stroke:#1ca5f2;}.cls-3{fill:#86c9f7;stroke-miterlimit:10;opacity:0.1;}</style></defs><path class="cls-1" d="M71.29,61.29a10,10,0,1,0,10,10A10,10,0,0,0,71.29,61.29ZM69.16,72.55l-.63.44-.74-1.14L67.08,73l-.64-.43.87-1-1.26-.36.23-.7,1.25.48-.08-1.36h.78l-.08,1.39,1.21-.48.24.72-1.28.34Zm3.72,0-.64.44-.73-1.14L70.79,73l-.64-.43.86-1-1.25-.36.24-.7,1.24.48-.08-1.36H72l-.08,1.39,1.21-.48.24.72L72,71.5Zm3.71,0L76,73l-.72-1.14L74.5,73l-.63-.43.86-1-1.26-.36.24-.7,1.24.48-.07-1.36h.78l-.08,1.39,1.22-.48.23.72-1.28.34Z"/><circle class="cls-2" cx="71.29" cy="71.29" r="10"/><path class="cls-2" d="M80.77,18H43.17c-3.5,0-6.37,3.74-6.37,8.3V41.1A9,9,0,0,0,40,48.31l-.23,4.08c0,.35.27.59.51.42L43,49.39H80.77c3.51,0,6.38-3.73,6.38-8.3V26.26C87.15,21.7,84.28,18,80.77,18Z"/><ellipse class="cls-2" cx="54.23" cy="35.42" rx="3.87" ry="3.88"/><ellipse class="cls-2" cx="69.72" cy="35.42" rx="3.87" ry="3.88"/><ellipse class="cls-3" cx="54.23" cy="35.42" rx="3.87" ry="3.88"/><ellipse class="cls-3" cx="69.72" cy="35.42" rx="3.87" ry="3.88"/><line class="cls-2" x1="54.23" y1="39.29" x2="69.72" y2="39.29"/><path class="cls-2" d="M24.52,33.77l2.85,14.86a10.68,10.68,0,0,1-5.84,3A30.31,30.31,0,0,0,41.21,68.91a9.16,9.16,0,0,1,3.06-5.4l12.92,1.65.85.11,1.07.14"/><path class="cls-2" d="M24.52,33.77a10.48,10.48,0,0,0-3.31-1,10,10,0,0,0-1.74-.12c-5.79.1-10.41,4.44-10.32,9.71.37,21.07,19.42,37.84,42.58,37.48a11.15,11.15,0,0,0,5.74-1.67,11.57,11.57,0,0,0,1.05-.74,2.28,2.28,0,0,0,.53-1.11"/></svg>