<svg id="Layer_1" data-name="Layer 1" xmlns="http://www.w3.org/2000/svg" viewBox="0 0 96 96"><defs><style>.cls-1{fill:none;stroke-linecap:round;stroke-linejoin:round;stroke-width:2px;}.cls-1,.cls-2,.cls-3{stroke:#1ca5f2;}.cls-2{fill:#1ca5f2;}.cls-2,.cls-3{stroke-miterlimit:10;isolation:isolate;opacity:0.17;}.cls-3{fill:#007aff;}.cls-4{fill:#ec5544;}.cls-5{fill:#f2a33c;}.cls-6{fill:#65c366;}.cls-7{fill:#30d158;}</style></defs><path class="cls-1" d="M63.3,84.37H11.67a4,4,0,0,1-4-4v-63a4,4,0,0,1,4-4H75.05a4,4,0,0,1,4,4V61.13"/><path class="cls-1" d="M11.62,13.4H75.09a4,4,0,0,1,4,4v12a0,0,0,0,1,0,0H7.67a0,0,0,0,1,0,0v-12A3.95,3.95,0,0,1,11.62,13.4Z"/><path class="cls-1" d="M57.41,53a14.86,14.86,0,0,1,.13,2,16,16,0,0,1-32,0,15.79,15.79,0,0,1,2.73-8.9,16.17,16.17,0,0,1,3.63-3.8,16.08,16.08,0,0,1,19.82.42"/><path class="cls-1" d="M49.51,55c0,8.61-5.08,15.59-7.48,15.59s-8.14-7-8.14-15.59S39.64,39.45,42,39.45,49.51,46.43,49.51,55Z"/><line class="cls-1" x1="41.7" y1="39.45" x2="41.7" y2="70.62"/><polyline class="cls-1" points="27.12 49.73 28.55 49.73 51.17 49.73"/><line class="cls-1" x1="26.44" y1="60.34" x2="56.59" y2="60.34"/><rect class="cls-1" x="55.35" y="41.48" width="4.38" height="3.44" rx="0.71"/><rect class="cls-2" x="52.99" y="44.93" width="8.95" height="5.51" rx="0.8"/><rect class="cls-1" x="52.99" y="44.93" width="8.95" height="5.51" rx="0.8"/><rect class="cls-3" x="7.96" y="14.21" width="70.54" height="15.91" rx="2.29"/><circle class="cls-4" cx="14.98" cy="22.1" r="2.5"/><circle class="cls-5" cx="24.65" cy="22.17" r="2.5"/><circle class="cls-6" cx="34.18" cy="22.1" r="2.5"/><path class="cls-7" d="M76.47,65.54a10,10,0,1,0,10,10A10,10,0,0,0,76.47,65.54ZM81,75.64a.91.91,0,0,1-.91.92H77.48v2.67a.91.91,0,0,1-.91.91h-.2a.91.91,0,0,1-.91-.91V76.56H72.82a.91.91,0,0,1-.91-.92v-.2a.91.91,0,0,1,.91-.91h2.64V71.86a.92.92,0,0,1,.91-.92h.2a.92.92,0,0,1,.91.92v2.67h2.64a.91.91,0,0,1,.91.91Z"/><path class="cls-1" d="M76.47,65.54a10,10,0,1,0,10,10A10,10,0,0,0,76.47,65.54Z"/></svg>