<svg id="Layer_1" data-name="Layer 1" xmlns="http://www.w3.org/2000/svg" viewBox="0 0 96 96"><defs><style>.cls-1{fill:#008ddd;}.cls-1,.cls-2{stroke:#1ca5f2;}.cls-1,.cls-3{stroke-miterlimit:10;}.cls-2{fill:none;stroke-linecap:round;stroke-linejoin:round;stroke-width:2px;}.cls-3{fill:#1ca5f2;stroke:#3a8cd7;}.cls-4{fill:#30d158;}</style></defs><ellipse class="cls-1" cx="48.5" cy="59.64" rx="3.98" ry="3.99"/><path class="cls-2" d="M13.16,42.36V72.68H10.21a1,1,0,0,0-1,1v1.77a1,1,0,0,1,0-.17V42.36a.83.83,0,0,1,.83-.83h2.32A.83.83,0,0,1,13.16,42.36Z"/><path class="cls-2" d="M68,72.68H10.21a1,1,0,0,0-1,1V86.39a1,1,0,0,0,1,1h60.5"/><rect class="cls-2" x="34.84" y="78.2" width="7.96" height="3.99" rx="0.8"/><rect class="cls-2" x="52.49" y="78.2" width="7.96" height="3.99" rx="0.8"/><rect class="cls-2" x="18.65" y="78.2" width="7.96" height="3.99" rx="0.8"/><path class="cls-3" d="M42.51,49.88a9.66,9.66,0,0,1,12.76,0c1.68-1.91,3.36-3.83,5-5.74a17.3,17.3,0,0,0-22.86,0C39.14,46.05,40.82,48,42.51,49.88Z"/><path class="cls-3" d="M32.23,38.21a25.19,25.19,0,0,1,33.31,0l5.06-5.74a32.85,32.85,0,0,0-43.42,0C28.86,34.38,30.55,36.29,32.23,38.21Z"/><path class="cls-3" d="M16.9,20.79,22,26.53a40.78,40.78,0,0,1,53.87,0c1.69-1.91,3.37-3.83,5.05-5.74A48.42,48.42,0,0,0,16.9,20.79Z"/><path class="cls-4" d="M81.47,67.54a10,10,0,1,0,10,10A10,10,0,0,0,81.47,67.54ZM86,77.64a.91.91,0,0,1-.91.92H82.48v2.67a.91.91,0,0,1-.91.91h-.2a.91.91,0,0,1-.91-.91V78.56H77.82a.91.91,0,0,1-.91-.92v-.2a.91.91,0,0,1,.91-.91h2.64V73.86a.92.92,0,0,1,.91-.92h.2a.92.92,0,0,1,.91.92v2.67h2.64a.91.91,0,0,1,.91.91Z"/><path class="cls-2" d="M81.47,67.54a10,10,0,1,0,10,10A10,10,0,0,0,81.47,67.54Z"/></svg>