<svg id="Layer_1" data-name="Layer 1" xmlns="http://www.w3.org/2000/svg" viewBox="0 0 96 96"><defs><style>.cls-1{fill:none;stroke-linecap:round;stroke-linejoin:round;stroke-width:2px;}.cls-1,.cls-2{stroke:#1ca5f2;}.cls-2{fill:#007aff;stroke-miterlimit:10;isolation:isolate;opacity:0.17;}.cls-3{fill:#30d158;}</style></defs><line class="cls-1" x1="70.74" y1="46.63" x2="53.9" y2="25.95"/><line class="cls-1" x1="69.48" y1="66.08" x2="55.76" y2="73.52"/><line class="cls-1" x1="40.1" y1="73.6" x2="21.92" y2="63.97"/><line class="cls-1" x1="47.95" y1="68.94" x2="47.95" y2="28.22"/><path class="cls-1" d="M56.85,19.4a8.75,8.75,0,0,1-3,6.55,8.94,8.94,0,0,1-12.09-.17,8.76,8.76,0,0,1-2.76-6.38,8.9,8.9,0,0,1,17.8,0Z"/><path class="cls-1" d="M56.85,77.76a8.9,8.9,0,0,1-17.8,0A8.73,8.73,0,0,1,40.1,73.6a8.95,8.95,0,0,1,15.66-.08A8.68,8.68,0,0,1,56.85,77.76Z"/><ellipse class="cls-1" cx="14.17" cy="59.65" rx="8.9" ry="8.82"/><ellipse class="cls-1" cx="14.17" cy="59.65" rx="8.9" ry="8.82"/><ellipse class="cls-2" cx="14.17" cy="59.65" rx="8.9" ry="8.82"/><line class="cls-1" x1="41.81" y1="25.78" x2="19.79" y2="52.81"/><path class="cls-3" d="M80.39,47.51a10,10,0,1,0,10,10A10,10,0,0,0,80.39,47.51ZM85,57.61a.91.91,0,0,1-.91.92H81.4V61.2a.91.91,0,0,1-.91.91h-.2a.91.91,0,0,1-.91-.91V58.53H76.74a.91.91,0,0,1-.91-.92v-.2a.91.91,0,0,1,.91-.91h2.64V53.83a.92.92,0,0,1,.91-.92h.2a.92.92,0,0,1,.91.92V56.5H84a.91.91,0,0,1,.91.91Z"/><path class="cls-1" d="M80.39,47.51a10,10,0,1,0,10,10A10,10,0,0,0,80.39,47.51Z"/></svg>