<svg id="Layer_1" data-name="Layer 1" xmlns="http://www.w3.org/2000/svg" viewBox="0 0 96 96"><defs><style>.cls-1{fill:none;stroke-linecap:round;stroke-linejoin:round;stroke-width:2px;}.cls-1,.cls-2{stroke:#1ca5f2;}.cls-2{fill:#86c9f7;stroke-miterlimit:10;opacity:0.1;}.cls-3{fill:#30d158;}</style></defs><path class="cls-1" d="M13.48,45.85V47h0V32.6"/><path class="cls-1" d="M51.37,51.77V66.25"/><path class="cls-1" d="M40.39,45.37v1.15h0V32.68"/><path class="cls-1" d="M79.82,51.86v4.07"/><polygon class="cls-1" points="85.94 51.77 45.69 51.77 48.27 35.93 83.36 35.93 85.94 51.77"/><polygon class="cls-1" points="47.15 32.51 6.89 32.51 9.48 16.66 44.56 16.66 47.15 32.51"/><polygon class="cls-1" points="47.15 32.51 6.89 32.51 9.48 16.66 44.56 16.66 47.15 32.51"/><polygon class="cls-2" points="47.15 32.51 6.89 32.51 9.48 16.66 44.56 16.66 47.15 32.51"/><path class="cls-3" d="M81.47,59.54a10,10,0,1,0,10,10A10,10,0,0,0,81.47,59.54ZM86,69.64a.91.91,0,0,1-.91.92H82.48v2.67a.91.91,0,0,1-.91.91h-.2a.91.91,0,0,1-.91-.91V70.56H77.82a.91.91,0,0,1-.91-.92v-.2a.91.91,0,0,1,.91-.91h2.64V65.86a.92.92,0,0,1,.91-.92h.2a.92.92,0,0,1,.91.92v2.67h2.64a.91.91,0,0,1,.91.91Z"/><path class="cls-1" d="M81.47,59.54a10,10,0,1,0,10,10A10,10,0,0,0,81.47,59.54Z"/></svg>