<svg id="Layer_1" data-name="Layer 1" xmlns="http://www.w3.org/2000/svg" viewBox="0 0 46 46"><defs><style>.cls-1,.cls-2{fill:#fff;}.cls-1,.cls-2,.cls-3,.cls-4{stroke:#487eab;stroke-miterlimit:10;}.cls-1{stroke-linecap:round;}.cls-2{stroke-width:0.8px;}.cls-3{fill:#00cfff;}.cls-4{fill:#f9f9f9;}</style></defs><title>Data Managagement</title><path class="cls-1" d="M29.33,19.87V7.57A.56.56,0,0,0,28.77,7H8.56A.56.56,0,0,0,8,7.57V38.44a.56.56,0,0,0,.56.56H25.33"/><rect class="cls-2" x="10.67" y="10.56" width="16" height="1.78"/><rect class="cls-2" x="10.67" y="15" width="16" height="1.78"/><circle class="cls-3" cx="18.67" cy="25.67" r="2.67"/><ellipse class="cls-4" cx="32" cy="35.3" rx="8" ry="3.56"/><polyline class="cls-4" points="24 35.3 24 31.81 40 31.81 40 35.3"/><ellipse class="cls-4" cx="32" cy="31.83" rx="8" ry="3.49"/><polyline class="cls-4" points="24 31.86 24 28.31 40 28.31 40 31.86"/><ellipse class="cls-4" cx="32" cy="28.36" rx="8" ry="3.49"/><polyline class="cls-4" points="24 28.42 24 24.86 40 24.86 40 28.42"/><ellipse class="cls-4" cx="32" cy="24.91" rx="8" ry="3.56"/></svg>