<svg id="Layer_1" data-name="Layer 1" xmlns="http://www.w3.org/2000/svg" viewBox="0 0 96 96"><defs><style>.cls-1{fill:none;stroke:#1ca5f2;stroke-linecap:round;stroke-linejoin:round;stroke-width:2px;}.cls-2{fill:#ff9500;}</style></defs><path class="cls-1" d="M7.84,42.13V27.21a2.66,2.66,0,0,1,2.68-2.63h19.1a2.65,2.65,0,0,1,2.67,2.63v5.37"/><path class="cls-1" d="M81.2,57.32V34.9a2.36,2.36,0,0,0-2.37-2.32H10.21A2.36,2.36,0,0,0,7.84,34.9V78.25a2.36,2.36,0,0,0,2.37,2.33H70.06"/><path class="cls-1" d="M57.25,58.44a14.26,14.26,0,0,1-28.52,0,13.81,13.81,0,0,1,2.43-7.83A14.31,14.31,0,0,1,43,44.44,14.12,14.12,0,0,1,57.25,58.44Z"/><path class="cls-1" d="M50.1,58.44c0,7.57-4.53,13.7-6.66,13.7S36.18,66,36.18,58.44s5.12-13.71,7.26-13.71S50.1,50.86,50.1,58.44Z"/><line class="cls-1" x1="43.14" y1="44.73" x2="43.14" y2="72.14"/><line class="cls-1" x1="29.54" y1="53.77" x2="56.43" y2="53.77"/><line class="cls-1" x1="29.54" y1="63.1" x2="56.41" y2="63.1"/><path class="cls-2" d="M81.25,80.44a9.5,9.5,0,1,1,9.5-9.5A9.5,9.5,0,0,1,81.25,80.44Zm2.45-9.1H82V67.82a.73.73,0,0,0-.73-.73.73.73,0,0,0-.72.73v3.52H78.8a.24.24,0,0,0-.21.36l2.44,3a.25.25,0,0,0,.43,0l2.45-3A.25.25,0,0,0,83.7,71.34Z"/><circle class="cls-1" cx="81.25" cy="70.94" r="9.5"/></svg>