<svg id="Layer_1" data-name="Layer 1" xmlns="http://www.w3.org/2000/svg" viewBox="0 0 96 96"><defs><style>.cls-1{fill:none;stroke-linecap:round;stroke-linejoin:round;stroke-width:2px;}.cls-1,.cls-2{stroke:#1ca5f2;}.cls-2{fill:#007aff;stroke-miterlimit:10;isolation:isolate;opacity:0.17;}</style></defs><path class="cls-1" d="M72,10.23,53.54,28.35l2.9,2.84,18.4-18.32a2,2,0,0,1,2.84,0h0a1.94,1.94,0,0,1,0,2.78L59,33.71l3.11,3L80.65,18.37a1.89,1.89,0,0,1,2.63,0h0a1.81,1.81,0,0,1,0,2.59L64.55,39.15l2.35,2.3L85.38,23.33a9.17,9.17,0,0,0,0-13.1h0A9.59,9.59,0,0,0,72,10.23Z"/><polygon class="cls-1" points="39.26 59.48 34.59 54.91 22.56 66.71 17.5 67.68 17.43 67.78 17.38 67.79 8.13 81.56 11.7 85.07 26.07 76.31 26.11 76.28 26.21 76.22 27.63 70.87 39.26 59.48"/><path class="cls-1" d="M37.94,14.19a18.47,18.47,0,0,0-19-4.37L29.78,20.67a3.16,3.16,0,0,1-.05,4.52L25,29.68a3.33,3.33,0,0,1-4.62-.05L9.6,18.88a17.53,17.53,0,0,0,4.15,18.4,18.43,18.43,0,0,0,16.78,5,5.34,5.34,0,0,0,.39.44L72,83.8a6,6,0,0,0,8.32.09l3.74-3.51a5.69,5.69,0,0,0,.09-8.14L43.07,31.12a5.22,5.22,0,0,0-.43-.39A17.55,17.55,0,0,0,37.94,14.19Z"/><ellipse class="cls-1" cx="69.45" cy="69.18" rx="3.86" ry="3.83"/><ellipse class="cls-1" cx="69.45" cy="69.18" rx="3.86" ry="3.83"/><ellipse class="cls-2" cx="69.45" cy="69.18" rx="3.86" ry="3.83"/></svg>