<svg id="Layer_1" data-name="Layer 1" xmlns="http://www.w3.org/2000/svg" viewBox="0 0 96 96"><defs><style>.cls-1{fill:none;stroke:#1ca5f2;stroke-linecap:round;stroke-linejoin:round;stroke-width:2px;}.cls-2{fill:#30d158;}</style></defs><path class="cls-1" d="M63.64,84.4A39.77,39.77,0,1,1,82.87,66.31"/><path class="cls-1" d="M67.28,48c0,21.53-12.68,39-18.66,39S28.29,69.56,28.29,48,42.65,9,48.62,9,67.28,26.5,67.28,48Z"/><line class="cls-1" x1="47.79" y1="9.04" x2="47.79" y2="87.01"/><line class="cls-1" x1="84.9" y1="34.76" x2="9.71" y2="34.76"/><line class="cls-1" x1="9.71" y1="61.3" x2="84.94" y2="61.3"/><path class="cls-2" d="M75.47,67.54a10,10,0,1,0,10,10A10,10,0,0,0,75.47,67.54ZM80,77.64a.91.91,0,0,1-.91.92H76.48v2.67a.91.91,0,0,1-.91.91h-.2a.91.91,0,0,1-.91-.91V78.56H71.82a.91.91,0,0,1-.91-.92v-.2a.91.91,0,0,1,.91-.91h2.64V73.86a.92.92,0,0,1,.91-.92h.2a.92.92,0,0,1,.91.92v2.67h2.64a.91.91,0,0,1,.91.91Z"/><path class="cls-1" d="M75.47,67.54a10,10,0,1,0,10,10A10,10,0,0,0,75.47,67.54Z"/></svg>