<svg id="Layer_1" data-name="Layer 1" xmlns="http://www.w3.org/2000/svg" viewBox="0 0 96 96"><defs><style>.cls-1{fill:none;stroke:#1ca5f2;stroke-linecap:round;stroke-linejoin:round;stroke-width:2px;}.cls-2{fill:#30d158;}</style></defs><path class="cls-1" d="M6.81,82.14V47.24a7.22,7.22,0,0,1,.06-.92"/><path class="cls-1" d="M77.72,42.54l.22.11.08.05a3.1,3.1,0,0,1,.68.51,3.45,3.45,0,0,1,.81,1.08,4.07,4.07,0,0,1,.4,1.68,3.75,3.75,0,0,1-1,2.62l-1.25.92-.2.15-.36.27s0,0,0,0l-.53.4-.22.15a0,0,0,0,0,0,0,.09.09,0,0,0,0,0c-.22.16-.35.25-.39.29L57.08,64.73"/><path class="cls-1" d="M29.65,64.74,10.81,50.8l-.06,0-1.11-.83c-.4-.3-.76-.58-.86-.63L8,48.75a.47.47,0,0,1-.12-.09l-.09-.07a2.6,2.6,0,0,1-.33-.43,3.58,3.58,0,0,1-.59-1.33v0a1.06,1.06,0,0,1,0-.19s0-.08,0-.12v0a2.07,2.07,0,0,1,0-.35.14.14,0,0,1,0-.09,3.91,3.91,0,0,1,.82-2.4,2.85,2.85,0,0,1,.41-.44,2.71,2.71,0,0,1,.55-.41l.05,0a.82.82,0,0,1,.2-.12"/><path class="cls-1" d="M64.41,87.23H10.47a3.78,3.78,0,0,1-2.64-6.36S41.5,55.92,42,55.72a3.61,3.61,0,0,1,2.88,0c.25.11,11.91,8.72,21.52,15.83"/><path class="cls-1" d="M28.79,27.84l-21,15.51a3.82,3.82,0,0,0-.61,4.31A3.71,3.71,0,0,0,8.78,49.3c.23.12,1.77,1.39,2,1.5"/><path class="cls-1" d="M76.32,50.5c-1.91,1.42,2.42-1.73,2.76-2.17A4,4,0,0,0,79.77,47a3.8,3.8,0,0,0-.88-3.6s-11.36-8.42-21-15.51"/><polyline class="cls-1" points="36.58 34.18 36.58 22.17 26.65 13.68 26.65 16.17 26.65 13.68 29.64 13.68"/><polyline class="cls-1" points="49 34.18 49 22.17 58.93 13.68 58.93 16.17 58.93 13.68 55.94 13.68"/><polyline class="cls-1" points="43.36 34.96 43.36 13.43 41.4 15.42 43.36 13.43 45.34 15.42"/><polyline class="cls-1" points="26.65 60.17 26.65 38.26 59.97 38.26 59.97 60.47"/><line class="cls-1" x1="33.28" y1="45.64" x2="54.8" y2="45.64"/><line class="cls-1" x1="33.28" y1="51.79" x2="54.8" y2="51.79"/><line class="cls-1" x1="79.9" y1="46.31" x2="79.9" y2="64.34"/><path class="cls-2" d="M78.29,69a9.5,9.5,0,1,0,9.5,9.5A9.51,9.51,0,0,0,78.29,69Zm4.33,9.6a.86.86,0,0,1-.86.87H79.25V82a.87.87,0,0,1-.86.86H78.2a.87.87,0,0,1-.87-.86V79.44H74.82a.86.86,0,0,1-.86-.87v-.19a.86.86,0,0,1,.86-.87h2.51V75a.87.87,0,0,1,.87-.88h.19a.87.87,0,0,1,.86.88v2.53h2.51a.86.86,0,0,1,.86.87Z"/><path class="cls-1" d="M78.29,69a9.5,9.5,0,1,0,9.5,9.5A9.51,9.51,0,0,0,78.29,69Z"/></svg>