<svg id="Layer_1" data-name="Layer 1" xmlns="http://www.w3.org/2000/svg" viewBox="0 0 96 96"><defs><style>.cls-1{fill:none;stroke:#1ca5f2;stroke-linecap:round;stroke-linejoin:round;stroke-width:2px;}.cls-2{fill:#30d158;}</style></defs><path class="cls-1" d="M85.32,31a5.71,5.71,0,0,1,.31,1.86V50.68"/><path class="cls-1" d="M30.91,52.2,7.54,69.93l0,0a4.3,4.3,0,0,0-.85,1.43V33.14A.15.15,0,0,1,6.93,33c1.93,1.81,14.25,11.53,24,18.93A.14.14,0,0,1,30.91,52.2Z"/><path class="cls-1" d="M60.7,52.07l9.74,7.38"/><path class="cls-1" d="M6.67,71.38A4.15,4.15,0,0,0,10.38,77H74.69"/><path class="cls-1" d="M85.32,31a4.2,4.2,0,0,1-1.08,3.23S47.89,61.83,47.41,62.05a3.75,3.75,0,0,1-3.11,0c-.18-.09-6.15-4.59-13.23-9.94L7.53,34.2a4.25,4.25,0,0,1-.86-1.45,5.57,5.57,0,0,1,5.47-5.58h68A5.48,5.48,0,0,1,85.32,31Z"/><path class="cls-2" d="M83.05,55.58a10,10,0,1,0,10,10A10,10,0,0,0,83.05,55.58Zm4.56,10.1a.91.91,0,0,1-.91.92H84.06v2.67a.91.91,0,0,1-.91.91H83a.91.91,0,0,1-.91-.91V66.6H79.4a.91.91,0,0,1-.91-.92v-.2a.91.91,0,0,1,.91-.91H82V61.9A.92.92,0,0,1,83,61h.2a.92.92,0,0,1,.91.92v2.67H86.7a.91.91,0,0,1,.91.91Z"/><path class="cls-1" d="M83.05,55.58a10,10,0,1,0,10,10A10,10,0,0,0,83.05,55.58Z"/></svg>