<svg id="Layer_1" data-name="Layer 1" xmlns="http://www.w3.org/2000/svg" viewBox="0 0 96 96"><defs><style>.cls-1{fill:none;stroke:#1ca5f2;stroke-linecap:round;stroke-linejoin:round;stroke-width:2px;}.cls-2{fill:#30d158;}</style></defs><path class="cls-1" d="M76.22,31.84a7.79,7.79,0,0,1-15.57,0A7.31,7.31,0,0,1,62,27.64a7.71,7.71,0,0,1,1.76-1.8,8,8,0,0,1,4.69-1.51A7.65,7.65,0,0,1,76.22,31.84Z"/><path class="cls-1" d="M72.32,31.84c0,4.07-2.48,7.37-3.64,7.37s-4-3.3-4-7.37,2.8-7.36,4-7.36S72.32,27.78,72.32,31.84Z"/><line class="cls-1" x1="68.52" y1="24.48" x2="68.52" y2="39.21"/><line class="cls-1" x1="61.09" y1="29.34" x2="75.77" y2="29.34"/><line class="cls-1" x1="61.09" y1="34.34" x2="75.77" y2="34.34"/><path class="cls-1" d="M44.85,60.17H37.33a7.79,7.79,0,0,1,15.58,0Z"/><ellipse class="cls-1" cx="45.85" cy="48.89" rx="3.89" ry="3.76"/><path class="cls-1" d="M61.42,60.17H53.89a7.79,7.79,0,0,1,15.58,0Z"/><ellipse class="cls-1" cx="61.72" cy="48.9" rx="3.89" ry="3.76"/><path class="cls-1" d="M36.71,60.17H24.32a7.66,7.66,0,0,1,7.79-7.52,7.88,7.88,0,0,1,6,2.73q.14.15.27.33"/><ellipse class="cls-1" cx="31.2" cy="48.93" rx="3.89" ry="3.76"/><rect class="cls-1" x="39.62" y="71.46" width="14.02" height="7.36" rx="0.62"/><path class="cls-1" d="M61.16,71.46H12a3.83,3.83,0,0,1-3.9-3.76V18.84A3.83,3.83,0,0,1,12,15.08H82.06A3.83,3.83,0,0,1,86,18.84V65.57"/><path class="cls-1" d="M82.06,61.92V21a1.91,1.91,0,0,0-1.94-1.88H13.91A1.91,1.91,0,0,0,12,21V66.08A1.91,1.91,0,0,0,13.91,68H64.26"/><rect class="cls-1" x="30.14" y="78.82" width="31.15" height="3.76" rx="0.8"/><path class="cls-2" d="M76.47,65.54a10,10,0,1,0,10,10A10,10,0,0,0,76.47,65.54ZM81,75.64a.91.91,0,0,1-.91.92H77.48v2.67a.91.91,0,0,1-.91.91h-.2a.91.91,0,0,1-.91-.91V76.56H72.82a.91.91,0,0,1-.91-.92v-.2a.91.91,0,0,1,.91-.91h2.64V71.86a.92.92,0,0,1,.91-.92h.2a.92.92,0,0,1,.91.92v2.67h2.64a.91.91,0,0,1,.91.91Z"/><path class="cls-1" d="M76.47,65.54a10,10,0,1,0,10,10A10,10,0,0,0,76.47,65.54Z"/></svg>