<svg id="Layer_1" data-name="Layer 1" xmlns="http://www.w3.org/2000/svg" viewBox="0 0 96 96"><defs><style>.cls-1,.cls-2,.cls-3{fill:none;}.cls-1,.cls-2,.cls-3,.cls-4{stroke:#1ca5f2;}.cls-1,.cls-2{stroke-linecap:round;stroke-linejoin:round;}.cls-1,.cls-3{stroke-width:2px;}.cls-2{stroke-width:1.6px;}.cls-3,.cls-4{stroke-miterlimit:10;}.cls-4{fill:#007aff;isolation:isolate;opacity:0.17;}.cls-5{fill:#30d158;}</style></defs><path class="cls-1" d="M18.41,41c1-15.46,14.15-27.72,30.26-27.72S77.9,25.51,78.93,40.91M16,41.11C16.94,24.32,31.21,11,48.67,11S80.37,24.29,81.33,41"/><path class="cls-2" d="M66.86,74.66a25.44,25.44,0,0,1-8.64,3m9.48-1.29a27.58,27.58,0,0,1-9.48,3.17"/><path class="cls-1" d="M23.91,41.51v23a.47.47,0,0,1-.47.46H11.55a4,4,0,0,1-4-4V45a4,4,0,0,1,4-4H23.44A.47.47,0,0,1,23.91,41.51Z"/><path class="cls-1" d="M87.31,62.24a7.81,7.81,0,0,0,2-5.26V49a8.08,8.08,0,0,0-8.18-8H73.93A1,1,0,0,0,73,42V60.13"/><rect class="cls-1" x="39.71" y="74.66" width="18.51" height="8.32" rx="2.09"/><path class="cls-3" d="M45.29,31.64l-.55,9a5.48,5.48,0,0,1-3.45,1,17.23,17.23,0,0,0,7.92,12.6,5.53,5.53,0,0,1,2.34-2.76l8.3,3.31a5.64,5.64,0,0,1,.21,1.88,5.29,5.29,0,0,1-.13,1A5.63,5.63,0,0,1,53.21,62,22.87,22.87,0,0,1,36.07,34.71a5.64,5.64,0,0,1,6.72-4.35,5,5,0,0,1,.9.29,5.37,5.37,0,0,1,1.6,1"/><path class="cls-1" d="M45.29,31.64l-.55,9a5.48,5.48,0,0,1-3.45,1,17.23,17.23,0,0,0,7.92,12.6,5.53,5.53,0,0,1,2.34-2.76l8.3,3.31a5.64,5.64,0,0,1,.21,1.88,5.29,5.29,0,0,1-.13,1A5.63,5.63,0,0,1,53.21,62,22.87,22.87,0,0,1,36.07,34.71a5.64,5.64,0,0,1,6.72-4.35,5,5,0,0,1,.9.29,5.37,5.37,0,0,1,1.6,1"/><path class="cls-4" d="M45.29,31.64l-.55,9a5.48,5.48,0,0,1-3.45,1,17.23,17.23,0,0,0,7.92,12.6,5.53,5.53,0,0,1,2.34-2.76l8.3,3.31a5.64,5.64,0,0,1,.21,1.88,5.29,5.29,0,0,1-.13,1A5.63,5.63,0,0,1,53.21,62,22.87,22.87,0,0,1,36.07,34.71a5.64,5.64,0,0,1,6.72-4.35,5,5,0,0,1,.9.29,5.37,5.37,0,0,1,1.6,1"/><path class="cls-5" d="M79.05,62.08a9.5,9.5,0,1,0,9.5,9.5A9.5,9.5,0,0,0,79.05,62.08Zm4.33,9.59a.86.86,0,0,1-.86.88H80v2.53a.87.87,0,0,1-.86.87H79a.87.87,0,0,1-.87-.87V72.55h-2.5a.87.87,0,0,1-.87-.88v-.19a.86.86,0,0,1,.87-.86h2.5V68.08a.87.87,0,0,1,.87-.87h.19a.87.87,0,0,1,.86.87v2.54h2.51a.86.86,0,0,1,.86.86Z"/><path class="cls-1" d="M79.05,62.08a9.5,9.5,0,1,0,9.5,9.5A9.5,9.5,0,0,0,79.05,62.08Z"/></svg>