<svg id="Layer_1" data-name="Layer 1" xmlns="http://www.w3.org/2000/svg" viewBox="0 0 96 96"><defs><style>.cls-1{fill:none;stroke-linecap:round;stroke-linejoin:round;stroke-width:2px;}.cls-1,.cls-2{stroke:#1ca5f2;}.cls-2{fill:#007aff;stroke-miterlimit:10;isolation:isolate;opacity:0.17;}.cls-3{fill:#30d158;}</style></defs><path class="cls-1" d="M13.93,47.48,5.34,41.94a2.86,2.86,0,0,1-.86-3.87l8.94-14.7a2.69,2.69,0,0,1,3.76-.89L25.76,28a2.87,2.87,0,0,1,.87,3.87l-8.94,14.7A2.68,2.68,0,0,1,13.93,47.48Z"/><path class="cls-2" d="M13.93,47.48,5.34,41.94a2.86,2.86,0,0,1-.86-3.87l8.94-14.7a2.69,2.69,0,0,1,3.76-.89L25.76,28a2.87,2.87,0,0,1,.87,3.87l-8.94,14.7A2.68,2.68,0,0,1,13.93,47.48Z"/><path class="cls-1" d="M13.93,47.48,5.34,41.94a2.86,2.86,0,0,1-.86-3.87l8.94-14.7a2.69,2.69,0,0,1,3.76-.89L25.76,28a2.87,2.87,0,0,1,.87,3.87l-8.94,14.7A2.68,2.68,0,0,1,13.93,47.48Z"/><path class="cls-1" d="M74.51,38.09l-4.19-7.48a2.85,2.85,0,0,1,1-3.83l8.77-5.22a2.69,2.69,0,0,1,3.72,1l8.42,15a2.86,2.86,0,0,1,0,2.87"/><path class="cls-1" d="M26.07,67h0a3,3,0,0,1,.19-4.21l3.59-3.36a2.85,2.85,0,0,1,4.09.2h0a3.05,3.05,0,0,1-.2,4.21l-3.58,3.36A2.85,2.85,0,0,1,26.07,67Z"/><path class="cls-1" d="M33.65,69.55h0a3.06,3.06,0,0,1,.19-4.21L37.43,62a2.84,2.84,0,0,1,4.09.21h0a3.06,3.06,0,0,1-.19,4.21l-3.59,3.35A2.83,2.83,0,0,1,33.65,69.55Z"/><path class="cls-1" d="M41.23,72.16h0a3.05,3.05,0,0,1,.2-4.21L45,64.59a2.84,2.84,0,0,1,4.09.2h0A3.05,3.05,0,0,1,48.91,69l-3.59,3.36A2.85,2.85,0,0,1,41.23,72.16Z"/><path class="cls-1" d="M48.37,74.26h0a2.58,2.58,0,0,1-.11-3.49L51,68.16a2.31,2.31,0,0,1,3.33.38h0a2.57,2.57,0,0,1,.1,3.49l-2.69,2.61A2.3,2.3,0,0,1,48.37,74.26Z"/><path class="cls-1" d="M26.62,31.89l4,2.22s4.22.52,7-1.11,9-2.77,9.77-1.79"/><path class="cls-1" d="M70.93,31.7S67.38,35.05,64.51,35s-8.77-3.28-8.77-3.28-6.07-1.23-8.38-.49-9.57,7.73-10.45,8.39-5.11,8.22-5.11,9-1.59,4.68,5.79,4c0,0,5.22-1,7.22-5l3.59-5.42S63.87,52.67,67.22,54.15s2.24,7.81-2.63,6a35.12,35.12,0,0,1-8.14-4.28"/><path class="cls-1" d="M59.43,65.48a4,4,0,0,1,.42.65c1.15,2.32-.36,5.92-4.18,4.5l-.46-.17"/><path class="cls-1" d="M56.8,56.13A55,55,0,0,0,63,60c3.35,1.48,2.23,7.81-2.64,6s-5.71-3-5.71-3"/><path class="cls-1" d="M56.8,56.13C61.34,59.21,65.37,61,63,60"/><path class="cls-1" d="M18.43,45.38s4.51,3.36,4.63,4.9l4.59,10.19"/><path class="cls-1" d="M68.87,55.86l0-1.14c0-.44.73-1.34,1.83-2.42"/><path class="cls-3" d="M83.15,39.82a10,10,0,1,0,10,10A10,10,0,0,0,83.15,39.82Zm4.56,10.1a.91.91,0,0,1-.91.92H84.16v2.67a.91.91,0,0,1-.91.91h-.2a.91.91,0,0,1-.91-.91V50.84H79.5a.91.91,0,0,1-.91-.92v-.2a.91.91,0,0,1,.91-.91h2.64V46.14a.92.92,0,0,1,.91-.92h.2a.92.92,0,0,1,.91.92v2.67H86.8a.91.91,0,0,1,.91.91Z"/><path class="cls-1" d="M83.15,39.82a10,10,0,1,0,10,10A10,10,0,0,0,83.15,39.82Z"/></svg>