<svg id="Layer_1" data-name="Layer 1" xmlns="http://www.w3.org/2000/svg" viewBox="0 0 96 96"><defs><style>.cls-1{fill:none;stroke:#1ca5f2;stroke-linecap:round;stroke-linejoin:round;stroke-width:2px;}.cls-2{fill:#30d158;}</style></defs><rect class="cls-1" x="40.81" y="73.32" width="14.02" height="7.58" rx="0.62"/><path class="cls-1" d="M62.35,73.32H13.16a3.89,3.89,0,0,1-3.9-3.87V19.15a3.89,3.89,0,0,1,3.9-3.87h70.1a3.88,3.88,0,0,1,3.89,3.87v48.1"/><path class="cls-1" d="M83.26,63.49V21.34a1.94,1.94,0,0,0-2-1.93H15.11a1.94,1.94,0,0,0-1.95,1.93V67.77a1.94,1.94,0,0,0,1.95,1.94H65.45"/><rect class="cls-1" x="31.33" y="80.9" width="31.15" height="3.87" rx="0.8"/><path class="cls-2" d="M77.85,66.43a10,10,0,1,0,10,10A10,10,0,0,0,77.85,66.43Zm4.56,10.1a.91.91,0,0,1-.91.92H78.86v2.67A.91.91,0,0,1,78,81h-.2a.91.91,0,0,1-.91-.91V77.45H74.2a.91.91,0,0,1-.91-.92v-.2a.91.91,0,0,1,.91-.91h2.64V72.75a.92.92,0,0,1,.91-.92H78a.92.92,0,0,1,.91.92v2.67H81.5a.91.91,0,0,1,.91.91Z"/><path class="cls-1" d="M77.85,66.43a10,10,0,1,0,10,10A10,10,0,0,0,77.85,66.43Z"/></svg>