<svg id="Layer_1" data-name="Layer 1" xmlns="http://www.w3.org/2000/svg" viewBox="0 0 96 96"><defs><style>.cls-1{fill:none;stroke:#1ca5f2;stroke-linecap:round;stroke-linejoin:round;stroke-width:2px;}.cls-2{fill:#ff9500;}</style></defs><path class="cls-1" d="M60.32,75.43h-36a3.52,3.52,0,0,1-3.51-3.51V24.34a3.52,3.52,0,0,1,3.51-3.51H71.9a3.52,3.52,0,0,1,3.51,3.51V58.92"/><rect class="cls-1" x="35.55" y="36.47" width="25.12" height="25.12" rx="0.8"/><path class="cls-1" d="M29.68,9.13h2.69a.6.6,0,0,1,.6.6v7.2a0,0,0,0,1,0,0h-3.9a0,0,0,0,1,0,0V9.73A.6.6,0,0,1,29.68,9.13Z"/><path class="cls-1" d="M47.23,9.13h2.69a.6.6,0,0,1,.6.6v7.2a0,0,0,0,1,0,0h-3.9a0,0,0,0,1,0,0V9.73a.6.6,0,0,1,.6-.6Z"/><path class="cls-1" d="M64.78,9.13h2.69a.6.6,0,0,1,.6.6v7.2a0,0,0,0,1,0,0h-3.9a0,0,0,0,1,0,0V9.73A.6.6,0,0,1,64.78,9.13Z"/><path class="cls-1" d="M68.07,83v3.63a.5.5,0,0,1-.5.5h-2.9a.51.51,0,0,1-.5-.5v-6.3"/><path class="cls-1" d="M47.23,79.33h2.69a.6.6,0,0,1,.6.6v7.2a0,0,0,0,1,0,0h-3.9a0,0,0,0,1,0,0v-7.2A.6.6,0,0,1,47.23,79.33Z" transform="translate(97.15 166.45) rotate(180)"/><path class="cls-1" d="M29.68,79.33h2.69a.6.6,0,0,1,.6.6v7.2a0,0,0,0,1,0,0h-3.9a0,0,0,0,1,0,0v-7.2A.6.6,0,0,1,29.68,79.33Z" transform="translate(62.05 166.45) rotate(180)"/><path class="cls-1" d="M12.13,63.73h2.69a.6.6,0,0,1,.6.6v7.2a0,0,0,0,1,0,0h-3.9a0,0,0,0,1,0,0v-7.2a.6.6,0,0,1,.6-.6Z" transform="translate(-54.15 81.1) rotate(-90)"/><path class="cls-1" d="M12.13,46.18h2.69a.6.6,0,0,1,.6.6V54a0,0,0,0,1,0,0h-3.9a0,0,0,0,1,0,0v-7.2A.6.6,0,0,1,12.13,46.18Z" transform="translate(-36.6 63.55) rotate(-90)"/><path class="cls-1" d="M12.13,28.63h2.69a.6.6,0,0,1,.6.6v7.2a0,0,0,0,1,0,0h-3.9a0,0,0,0,1,0,0v-7.2a.6.6,0,0,1,.6-.6Z" transform="translate(-19.05 46) rotate(-90)"/><path class="cls-1" d="M82.33,28.63H85a.6.6,0,0,1,.6.6v7.2a0,0,0,0,1,0,0h-3.9a0,0,0,0,1,0,0v-7.2a.6.6,0,0,1,.6-.6Z" transform="translate(116.2 -51.15) rotate(90)"/><path class="cls-1" d="M82.33,46.18H85a.6.6,0,0,1,.6.6V54a0,0,0,0,1,0,0h-3.9a0,0,0,0,1,0,0v-7.2a.6.6,0,0,1,.6-.6Z" transform="translate(133.75 -33.6) rotate(90)"/><path class="cls-1" d="M84,65.68H86.4a1.17,1.17,0,0,1,1.17,1.17V68.4a1.17,1.17,0,0,1-1.17,1.18h-.57"/><path class="cls-2" d="M73.25,61.44a9.5,9.5,0,1,0,9.5,9.5A9.5,9.5,0,0,0,73.25,61.44Zm2.45,9.1H74v3.52a.73.73,0,0,1-.73.73.73.73,0,0,1-.72-.73V70.54H70.8a.24.24,0,0,1-.21-.36l2.44-3a.25.25,0,0,1,.43,0l2.45,3A.25.25,0,0,1,75.7,70.54Z"/><circle class="cls-1" cx="73.25" cy="70.94" r="9.5"/></svg>