<svg id="Layer_1" data-name="Layer 1" xmlns="http://www.w3.org/2000/svg" viewBox="0 0 96 96"><defs><style>.cls-1,.cls-2{fill:none;stroke-width:2px;}.cls-1,.cls-2,.cls-3{stroke:#1ca5f2;}.cls-1{stroke-linecap:round;stroke-linejoin:round;}.cls-2,.cls-3{stroke-miterlimit:10;}.cls-3{fill:#86c9f7;opacity:0.1;}.cls-4{fill:#ff9500;}</style></defs><path class="cls-1" d="M59.93,86.82H21.55a1.37,1.37,0,0,1-1.39-1.33V10.65a1.37,1.37,0,0,1,1.39-1.33H71.14a1.36,1.36,0,0,1,1.38,1.33V63.77"/><rect class="cls-1" x="26.71" y="17.97" width="39.27" height="4.19"/><rect class="cls-1" x="26.71" y="28.45" width="39.27" height="4.19"/><ellipse class="cls-2" cx="46.34" cy="53.6" rx="6.54" ry="6.29"/><ellipse class="cls-3" cx="46.34" cy="53.6" rx="6.54" ry="6.29"/><path class="cls-4" d="M69.66,67.49a9.57,9.57,0,1,0,9.68,9.56A9.62,9.62,0,0,0,69.66,67.49Zm.62,14L65.66,78l2-3L72.3,78.5Zm2.42-3.68-4.36-3.11,1-1.34,1.61,1.15L72,72.88a.54.54,0,0,1,.75-.13.55.55,0,0,1,.12.76l-1.13,1.58,1.88,1.34Z"/><ellipse class="cls-1" cx="69.66" cy="77.06" rx="9.68" ry="9.57"/></svg>