<svg id="Layer_1" data-name="Layer 1" xmlns="http://www.w3.org/2000/svg" viewBox="0 0 96 96"><defs><style>.cls-1,.cls-3,.cls-4{fill:none;stroke-linecap:round;stroke-linejoin:round;}.cls-1,.cls-2,.cls-3,.cls-4{stroke:#1ca5f2;}.cls-1{stroke-width:2px;}.cls-2{fill:#007aff;stroke-miterlimit:10;isolation:isolate;opacity:0.17;}.cls-3{stroke-width:1.6px;}.cls-4{stroke-width:0.6px;}.cls-5{fill:#30d158;}</style></defs><path class="cls-1" d="M57,30H39.83a2,2,0,0,0-2,2V62a2,2,0,0,0,2,2H57a2,2,0,0,0,2-2V32A2,2,0,0,0,57,30ZM55.44,57.79H41.35V34H55.44Z"/><path class="cls-2" d="M57,30H39.83a2,2,0,0,0-2,2V62a2,2,0,0,0,2,2H57a2,2,0,0,0,2-2V32A2,2,0,0,0,57,30ZM55.44,57.79H41.35V34H55.44Z"/><path class="cls-1" d="M18.41,42c1-15.46,14.15-27.72,30.26-27.72S78.05,26.65,79,42.18M16,42.11C16.94,25.32,31.21,12,48.67,12S80.37,25.29,81.33,42"/><path class="cls-3" d="M66.86,75.66a25.44,25.44,0,0,1-8.64,3m9.48-1.29a27.58,27.58,0,0,1-9.48,3.17"/><path class="cls-1" d="M11.55,42h11.9a.46.46,0,0,1,.46.46v23a.46.46,0,0,1-.46.46H11.55a4,4,0,0,1-4-4V46A4,4,0,0,1,11.55,42Z"/><circle class="cls-4" cx="48.4" cy="61.03" r="1"/><path class="cls-1" d="M87.31,63.24a7.81,7.81,0,0,0,2-5.26V50a8.08,8.08,0,0,0-8.18-8H73.93A1,1,0,0,0,73,43V61.13"/><rect class="cls-1" x="39.71" y="75.66" width="18.51" height="8.32" rx="2.09"/><path class="cls-5" d="M78.85,62.93a9.5,9.5,0,1,0,9.5,9.5A9.5,9.5,0,0,0,78.85,62.93Zm4.33,9.59a.86.86,0,0,1-.86.88H79.81v2.53a.87.87,0,0,1-.86.87h-.19a.87.87,0,0,1-.87-.87V73.4h-2.5a.87.87,0,0,1-.87-.88v-.19a.86.86,0,0,1,.87-.86h2.5V68.93a.87.87,0,0,1,.87-.87H79a.87.87,0,0,1,.86.87v2.54h2.51a.85.85,0,0,1,.86.86Z"/><path class="cls-1" d="M78.85,62.93a9.5,9.5,0,1,0,9.5,9.5A9.5,9.5,0,0,0,78.85,62.93Z"/></svg>