<svg id="Layer_1" data-name="Layer 1" xmlns="http://www.w3.org/2000/svg" viewBox="0 0 96 96"><defs><style>.cls-1{fill:none;stroke-linecap:round;stroke-linejoin:round;stroke-width:2px;}.cls-1,.cls-2{stroke:#1ca5f2;}.cls-2{fill:#007aff;stroke-miterlimit:10;isolation:isolate;opacity:0.17;}.cls-3{fill:#30d158;}</style></defs><path class="cls-1" d="M34.4,18.94H75.24a5.16,5.16,0,0,1,5.12,5.15V60"/><path class="cls-1" d="M14.52,18.94h-.84a5.16,5.16,0,0,0-5.13,5.15V78a5.16,5.16,0,0,0,5.13,5.15H69.3"/><path class="cls-1" d="M34.4,13.34V73a2.17,2.17,0,0,1-2.17,2.17H16.69A2.17,2.17,0,0,1,14.52,73V13.34a2.17,2.17,0,0,1,2.17-2.17H32.23A2.18,2.18,0,0,1,34.4,13.34Z"/><rect class="cls-1" x="38.16" y="27.63" width="35.78" height="8"/><rect class="cls-2" x="38.16" y="27.63" width="35.78" height="8"/><rect class="cls-1" x="39.61" y="43.34" width="6.36" height="6.4"/><rect class="cls-1" x="52.87" y="43.34" width="6.36" height="6.4"/><rect class="cls-1" x="66.12" y="43.34" width="6.36" height="6.4"/><rect class="cls-1" x="39.61" y="55.34" width="6.36" height="6.4"/><rect class="cls-1" x="52.87" y="55.34" width="6.36" height="6.4"/><rect class="cls-1" x="66.12" y="55.34" width="6.36" height="6.4"/><rect class="cls-1" x="39.61" y="67.34" width="6.36" height="6.4"/><rect class="cls-1" x="52.87" y="67.34" width="6.36" height="6.4"/><polyline class="cls-1" points="67.41 73.74 66.12 73.74 66.12 67.34 67.46 67.34 69 67.34"/><path class="cls-3" d="M79.85,63.93a9.5,9.5,0,1,0,9.5,9.5A9.5,9.5,0,0,0,79.85,63.93Zm4.33,9.59a.86.86,0,0,1-.86.88H80.81v2.53a.87.87,0,0,1-.86.87h-.19a.87.87,0,0,1-.87-.87V74.4h-2.5a.87.87,0,0,1-.87-.88v-.19a.86.86,0,0,1,.87-.86h2.5V69.93a.87.87,0,0,1,.87-.87H80a.87.87,0,0,1,.86.87v2.54h2.51a.85.85,0,0,1,.86.86Z"/><path class="cls-1" d="M79.85,63.93a9.5,9.5,0,1,0,9.5,9.5A9.5,9.5,0,0,0,79.85,63.93Z"/></svg>