<svg id="Layer_1" data-name="Layer 1" xmlns="http://www.w3.org/2000/svg" viewBox="0 0 96 96"><defs><style>.cls-1{fill:#ff9500;}.cls-2{fill:none;stroke-linecap:round;stroke-linejoin:round;stroke-width:2px;}.cls-2,.cls-3{stroke:#1ca5f2;}.cls-3{fill:#1ca5f2;stroke-miterlimit:10;}</style></defs><path class="cls-1" d="M77.25,87.44a9.5,9.5,0,1,1,9.5-9.5A9.5,9.5,0,0,1,77.25,87.44Zm2.45-9.1H78V74.82a.73.73,0,0,0-.73-.73.73.73,0,0,0-.72.73v3.52H74.8a.24.24,0,0,0-.21.36l2.44,3a.25.25,0,0,0,.43,0l2.45-3A.25.25,0,0,0,79.7,78.34Z"/><circle class="cls-2" cx="77.25" cy="77.94" r="9.5"/><path class="cls-2" d="M66,83.92a51.41,51.41,0,0,1-17.63,2.93c-16.71,0-30.26-7-30.26-15.66V55.59c0,2.85,1.46,5.51,4,7.8a30.18,30.18,0,0,0,12.29,6.1,53.77,53.77,0,0,0,14,1.77c9.34,0,17.7-2.2,23.24-5.64A21.06,21.06,0,0,0,74,63.89h0c2.91-2.39,4.6-5.23,4.6-8.29v9.3"/><path class="cls-2" d="M78.57,40.11V55.59c0,3.06-1.69,5.9-4.6,8.29h0a21.06,21.06,0,0,1-2.4,1.73c-5.54,3.44-13.9,5.64-23.24,5.64a53.77,53.77,0,0,1-14-1.77,30.18,30.18,0,0,1-12.29-6.1c-2.56-2.29-4-5-4-7.8V40.11c0,2.82,1.44,5.46,4,7.74,4.36,4,12,6.85,21,7.67l.74.07.79.06h0q1.86.12,3.78.12c1.28,0,2.54,0,3.77-.12h0l.8-.06.75-.07c9-.83,16.58-3.71,20.94-7.67C77.13,45.57,78.57,42.93,78.57,40.11Z"/><path class="cls-2" d="M53.68,39.93c8.93-.82,16.5-3.68,20.87-7.62l.06-.05c2.52-2.28,4-4.93,4-7.75v-.07C78.5,15.82,65,8.85,48.32,8.85s-30.19,7-30.26,15.59v.07c0,2.82,1.44,5.47,4,7.75l.06.05c4.37,3.94,12,6.8,20.89,7.62A53.9,53.9,0,0,0,53.68,39.93ZM42.47,22.09l-5-.7A.91.91,0,0,1,36.9,20l2.77-3.86a.91.91,0,0,1,1.55.14l.65,1.34.52,1.09,1,2.13A.91.91,0,0,1,42.47,22.09Z"/><path class="cls-2" d="M18.07,40.11s0-.15,0-.18V24.51c0,2.82,1.44,5.47,4,7.75l.06.05c4.37,3.94,12,6.8,20.89,7.62l1.57.13.94,0c.94,0,1.88.07,2.84.07s1.91,0,2.84-.07l.93,0,1.59-.13c8.93-.82,16.5-3.68,20.87-7.62l.06-.05c2.52-2.28,4-4.93,4-7.75v15.6"/><path class="cls-3" d="M58.07,22.46c0,3.21-4.67,5.72-10.64,5.72A17.33,17.33,0,0,1,41,27a.59.59,0,0,1-.33-.78.61.61,0,0,1,.78-.33,16.45,16.45,0,0,0,6,1.07c5.12,0,9.44-2.07,9.44-4.52S52.55,18,47.43,18a17.09,17.09,0,0,0-5,.72l-.52-1.09a18.16,18.16,0,0,1,5.56-.83C53.4,16.75,58.07,19.26,58.07,22.46Z"/></svg>