<svg id="Layer_1" data-name="Layer 1" xmlns="http://www.w3.org/2000/svg" viewBox="0 0 96 96"><defs><style>.cls-1{fill:none;stroke:#1ca5f2;stroke-linecap:round;stroke-linejoin:round;stroke-width:2px;}.cls-2{fill:#1ca5f2;}.cls-3{fill:#30d158;}</style></defs><path class="cls-1" d="M57.18,88.62H26.55a4,4,0,0,1-3.9-4v-72a4,4,0,0,1,3.9-4H65.47a4,4,0,0,1,3.9,4V65.71"/><polyline class="cls-1" points="54.65 74 28.49 74 28.49 18 63.53 18 63.53 66.29"/><ellipse class="cls-1" cx="46.01" cy="81.62" rx="3.89" ry="4"/><path class="cls-2" d="M40.76,44.83H36.32l1-4.21h3.47a2.23,2.23,0,0,1,2.37,2.05v.11A2.23,2.23,0,0,1,40.76,44.83Z"/><path class="cls-2" d="M39.78,50.72H35.34l1-4.21h3.46a2.24,2.24,0,0,1,2.38,2.06v.1A2.24,2.24,0,0,1,39.78,50.72Z"/><path class="cls-2" d="M48.54,44.83H44.1l1-4.21h3.46a2.24,2.24,0,0,1,2.38,2.05v.11A2.24,2.24,0,0,1,48.54,44.83Z"/><path class="cls-2" d="M47.57,50.72H43.13l1-4.21h3.47a2.23,2.23,0,0,1,2.37,2.06v.1A2.23,2.23,0,0,1,47.57,50.72Z"/><path class="cls-2" d="M46.6,56.62H42.16l1-4.21H46.6A2.23,2.23,0,0,1,49,54.46v.11A2.23,2.23,0,0,1,46.6,56.62Z"/><path class="cls-2" d="M56.33,48.2H51.89l1-4.21h3.47a2.23,2.23,0,0,1,2.37,2v.11A2.23,2.23,0,0,1,56.33,48.2Z"/><path class="cls-2" d="M55.36,54.09H50.92l1-4.21h3.47a2.23,2.23,0,0,1,2.37,2V52A2.23,2.23,0,0,1,55.36,54.09Z"/><path class="cls-3" d="M68.05,70.08a9.5,9.5,0,1,0,9.5,9.5A9.5,9.5,0,0,0,68.05,70.08Zm4.33,9.59a.86.86,0,0,1-.86.88H69v2.53a.87.87,0,0,1-.86.87H68a.87.87,0,0,1-.87-.87V80.55h-2.5a.87.87,0,0,1-.87-.88v-.19a.86.86,0,0,1,.87-.86h2.5V76.08a.87.87,0,0,1,.87-.87h.19a.87.87,0,0,1,.86.87v2.54h2.51a.86.86,0,0,1,.86.86Z"/><path class="cls-1" d="M68.05,70.08a9.5,9.5,0,1,0,9.5,9.5A9.5,9.5,0,0,0,68.05,70.08Z"/></svg>