<svg id="Layer_1" data-name="Layer 1" xmlns="http://www.w3.org/2000/svg" viewBox="0 0 96 96"><defs><style>.cls-1{fill:none;stroke-linecap:round;stroke-linejoin:round;stroke-width:2px;}.cls-1,.cls-2{stroke:#1ca5f2;}.cls-2{fill:#86c9f7;stroke-miterlimit:10;opacity:0.1;}.cls-3{fill:#30d158;}</style></defs><path class="cls-1" d="M14,54.8A33.36,33.36,0,0,1,13,46.39a34,34,0,0,1,34.27-33.8A34,34,0,0,1,81.5,46.39a33.36,33.36,0,0,1-1.07,8.41"/><ellipse class="cls-1" cx="47.22" cy="46.39" rx="6.86" ry="6.76"/><ellipse class="cls-2" cx="47.22" cy="46.39" rx="6.86" ry="6.76"/><polyline class="cls-1" points="61.63 80.19 60.08 80.19 4.33 80.19 4.33 54.8 90.02 54.8 90.02 58.71"/><line class="cls-1" x1="66.15" y1="80.19" x2="60.08" y2="80.19"/><rect class="cls-1" x="29.07" y="65.6" width="36.11" height="4.97"/><path class="cls-3" d="M81.47,61.54a10,10,0,1,0,10,10A10,10,0,0,0,81.47,61.54ZM86,71.64a.91.91,0,0,1-.91.92H82.48v2.67a.91.91,0,0,1-.91.91h-.2a.91.91,0,0,1-.91-.91V72.56H77.82a.91.91,0,0,1-.91-.92v-.2a.91.91,0,0,1,.91-.91h2.64V67.86a.92.92,0,0,1,.91-.92h.2a.92.92,0,0,1,.91.92v2.67h2.64a.91.91,0,0,1,.91.91Z"/><path class="cls-1" d="M81.47,61.54a10,10,0,1,0,10,10A10,10,0,0,0,81.47,61.54Z"/></svg>