<svg id="Layer_1" data-name="Layer 1" xmlns="http://www.w3.org/2000/svg" viewBox="0 0 96 96"><defs><style>.cls-1{fill:none;stroke-linecap:round;stroke-linejoin:round;stroke-width:2px;}.cls-1,.cls-2{stroke:#1ca5f2;}.cls-2{fill:#007aff;stroke-miterlimit:10;isolation:isolate;opacity:0.17;}</style></defs><path class="cls-1" d="M67.52,54.06a38.75,38.75,0,0,0-21.25-6.22C26,47.84,9.6,62.91,9.6,81.51H45"/><ellipse class="cls-1" cx="45.4" cy="31" rx="17.4" ry="16.83"/><path class="cls-1" d="M64.91,72.67c0-.24,0-.49,0-.74a9.53,9.53,0,0,1,4.53-8.07l.17-.1"/><path class="cls-1" d="M78.5,63a9.63,9.63,0,0,1,6.27,8.94c0,.21,0,.42,0,.62"/><path class="cls-1" d="M68.39,79.26a10.2,10.2,0,0,0,12,.63"/><ellipse class="cls-1" cx="74.22" cy="60.53" rx="4.97" ry="4.81"/><ellipse class="cls-1" cx="74.22" cy="60.53" rx="4.97" ry="4.81"/><ellipse class="cls-2" cx="74.22" cy="60.53" rx="4.97" ry="4.81"/><path class="cls-1" d="M68.79,77.36a4.79,4.79,0,0,1-.4,1.9,5,5,0,0,1-4.57,2.91,4.8,4.8,0,1,1,5-4.81Z"/><path class="cls-1" d="M89.6,77.36a4.89,4.89,0,0,1-5,4.81,5,5,0,0,1-4.22-2.28,4.59,4.59,0,0,1-.75-2.53,4.89,4.89,0,0,1,5-4.81h.12A4.89,4.89,0,0,1,89.6,77.36Z"/><line class="cls-1" x1="55.8" y1="81.51" x2="37.96" y2="81.51"/></svg>