<?xml version="1.0" encoding="utf-8"?>
<!-- Generator: Adobe Illustrator 24.1.0, SVG Export Plug-In . SVG Version: 6.00 Build 0)  -->
<svg version="1.1" id="Layer_1" xmlns="http://www.w3.org/2000/svg" xmlns:xlink="http://www.w3.org/1999/xlink" x="0px" y="0px"
	 viewBox="0 0 48 48" style="enable-background:new 0 0 48 48;" xml:space="preserve">
<style type="text/css">
	.st0{fill:none;}
	.st1{fill:#7B83EB;}
	.st2{opacity:0.1;enable-background:new    ;}
	.st3{opacity:0.2;enable-background:new    ;}
	.st4{fill:#5059C9;}
	.st5{fill:#4B53BC;}
	.st6{fill:#FFFFFF;}
</style>
<g>
	<rect y="0.3" class="st0" width="48" height="47.5"/>
	<g>
		<circle id="Head" class="st1" cx="25.5" cy="10.3" r="6.5"/>
		<path class="st2" d="M25.1,11.7h-5.9c0,0,0,0.1,0,0.1v0c0,0,0,0.1,0,0.1c0.9,3.4,4.3,5.5,7.7,4.7v-3.1
			C26.9,12.5,26.1,11.7,25.1,11.7z"/>
		<path class="st3" d="M23.7,13.1h-4c1.1,2.3,3.4,3.7,5.9,3.7V15C25.5,13.9,24.7,13.1,23.7,13.1z"/>
		<circle id="Head-2" class="st4" cx="40.2" cy="12.4" r="4.9"/>
		<path class="st4" d="M44.4,18.7h-11c-0.5,0-0.9,0.4-0.9,0.9l0,0l0,0v11.3c-0.1,3.4,2.2,6.3,5.5,7.1c3.8,0.8,7.5-1.6,8.3-5.4
			c0.1-0.5,0.1-1,0.1-1.4V20.8C46.5,19.6,45.5,18.7,44.4,18.7z"/>
		<path class="st1" d="M36.7,20.8V34c0,6.2-5,11.2-11.2,11.2c-4,0-7.7-2.1-9.7-5.6c-0.3-0.4-0.5-0.9-0.7-1.4
			c-0.2-0.5-0.3-0.9-0.5-1.4c-0.2-0.9-0.3-1.9-0.3-2.8V20.8c0-1.2,0.9-2.1,2.1-2.1c0,0,0,0,0,0h18.2C35.8,18.7,36.7,19.6,36.7,20.8
			L36.7,20.8L36.7,20.8z"/>
		<path class="st3" d="M23.7,13.1h-4c1.1,2.3,3.4,3.7,5.9,3.7V15C25.5,13.9,24.7,13.1,23.7,13.1z"/>
		<path class="st2" d="M26.9,18.7v17.7c0,0.9-0.6,1.6-1.5,1.8c-0.1,0-0.3,0.1-0.4,0.1h-9.9c-0.2-0.5-0.3-0.9-0.5-1.4
			c-0.2-0.9-0.3-1.9-0.3-2.8V20.8c0-1.2,0.9-2.1,2.1-2.1c0,0,0,0,0,0L26.9,18.7L26.9,18.7z"/>
		<path class="st3" d="M25.5,18.7v19.1c0,0.1,0,0.3-0.1,0.4c-0.2,0.8-0.9,1.5-1.8,1.5h-7.8c-0.3-0.4-0.5-0.9-0.7-1.4
			c-0.2-0.5-0.3-0.9-0.5-1.4c-0.2-0.9-0.3-1.9-0.3-2.8V20.8c0-1.2,0.9-2.1,2.1-2.1c0,0,0,0,0,0L25.5,18.7L25.5,18.7z"/>
		<path class="st3" d="M25.5,18.7V35c0,1-0.8,1.9-1.9,1.9h-9c-0.2-0.9-0.3-1.9-0.3-2.8V20.8c0-1.2,0.9-2.1,2.1-2.1c0,0,0,0,0,0H25.5
			L25.5,18.7z"/>
		<path class="st3" d="M16.5,18.7c-1.2,0-2.1,0.9-2.1,2.1c0,0,0,0,0,0V34c0,0.9,0.1,1.9,0.3,2.8h7.6c1,0,1.9-0.8,1.9-1.9V18.7H16.5z
			"/>
		<path id="Back_Plate" class="st5" d="M3.7,13.1h18.6c1,0,1.9,0.8,1.9,1.9v18.6c0,1-0.8,1.9-1.9,1.9H3.7c-1,0-1.9-0.8-1.9-1.9V15
			C1.8,13.9,2.6,13.1,3.7,13.1z"/>
		<path class="st6" d="M18.5,20h-4.2v11.2h-2.7V20H7.4v-2.7h11.1V20z"/>
	</g>
</g>
</svg>
