<svg xmlns="http://www.w3.org/2000/svg" xmlns:xlink="http://www.w3.org/1999/xlink" id="req-serv-act-ic" viewBox="0 0 42 42" x="0px" y="0px" width="42px" height="42px">
      <g>
        <g>
          <circle style="fill:transparent;" class="dk-serv-act-ic" cx="21" cy="21" r="19"/>
          <path d="M21,41c-11,0-20-9-20-20S10,1,21,1s20,9,20,20S32,41,21,41z M21,3C11.1,3,3,11.1,3,21s8.1,18,18,18             S39,31,39,21S30.9,3,21,3z" style="fill: #008ddd;"/>
        </g>
        <g style="fill: #008ddd;">
          <circle cx="33.5" cy="32.5" r="7.5"/>
          <path style="fill:#FFFFFF;" d="M33.5,40.8c-4.6,0-8.3-3.7-8.3-8.3s3.7-8.3,8.3-8.3s8.3,3.7,8.3,8.3S38.1,40.8,33.5,40.8z              M33.5,25.8c-3.7,0-6.7,3-6.7,6.7s3,6.7,6.7,6.7s6.7-3,6.7-6.7S37.2,25.8,33.5,25.8z"/>
        </g>
        <g id="Path_4358_8_">
          <polygon style="fill:#FFFFFF;" points="32.6,35.8 29.7,32.8 30.6,31.8 32.6,33.8 37,29.5 38,30.5   "/>
        </g>
      </g>
      <g id="Group_195_1_" transform="translate(-0.935 -1.899)">
        <g id="Path_80_1_">
          <path style="fill:#436992;" d="M26.4,26.9h-10l-2.1-12h-1.2c-0.3,0-0.5-0.2-0.5-0.5s0.2-0.5,0.5-0.5h2l2.1,12h9.2             c0.5,0,0.6-0.4,0.6-0.5l1.9-6.5H18.1c-0.3,0-0.5-0.2-0.5-0.5s0.2-0.5,0.5-0.5h12.2l-2.3,7.7C27.8,26.4,27.2,26.9,26.4,26.9z"/>
        </g>
        <g id="Ellipse_18_1_">
          <path style="fill:#436992;" d="M18,31.6c-1,0-1.8-0.8-1.8-1.8c0-1,0.8-1.8,1.8-1.8s1.8,0.8,1.8,1.8C19.8,30.8,19,31.6,18,31.6z              M18,29c-0.4,0-0.8,0.4-0.8,0.8c0,0.4,0.4,0.8,0.8,0.8s0.8-0.4,0.8-0.8C18.8,29.3,18.4,29,18,29z"/>
        </g>
        <g id="Ellipse_19_1_">
          <path style="fill:#436992;" d="M25.8,31.6c-1,0-1.8-0.8-1.8-1.8c0-1,0.8-1.8,1.8-1.8s1.8,0.8,1.8,1.8             C27.6,30.8,26.8,31.6,25.8,31.6z M25.8,29c-0.4,0-0.8,0.4-0.8,0.8c0,0.4,0.4,0.8,0.8,0.8s0.8-0.4,0.8-0.8             C26.6,29.3,26.2,29,25.8,29z"/>
        </g>
      </g>
    </svg>