<svg xmlns="http://www.w3.org/2000/svg" xmlns:xlink="http://www.w3.org/1999/xlink" id="req-serv-act-ic" viewBox="0 0 42 42" x="0px" y="0px" width="42px" height="42px">
      <g>
        <g>
          <circle style="fill:transparent;" class="dk-inci-act-ic" cx="21" cy="21" r="19"/>
          <path d="M21,41c-11,0-20-9-20-20S10,1,21,1s20,9,20,20S32,41,21,41z M21,3C11.1,3,3,11.1,3,21s8.1,18,18,18             S39,31,39,21S30.9,3,21,3z" style="fill: #008ddd;"/>
        </g>
        <g>
          <circle cx="33.5" cy="32.5" r="7.5" style="fill: #008ddd;"/>
          <path style="fill:#FFFFFF;" d="M33.5,40.8c-4.6,0-8.3-3.7-8.3-8.3s3.7-8.3,8.3-8.3s8.3,3.7,8.3,8.3S38.1,40.8,33.5,40.8z              M33.5,25.8c-3.7,0-6.7,3-6.7,6.7s3,6.7,6.7,6.7s6.7-3,6.7-6.7S37.2,25.8,33.5,25.8z"/>
        </g>
        <g id="Path_4358_9_">
          <polygon style="fill:#FFFFFF;" points="32.6,35.8 29.7,32.8 30.6,31.8 32.6,33.8 37,29.5 38,30.5   "/>
        </g>
        <g id="Group_4201_2_" transform="translate(-0.785 -1.251)">
          <g id="Path_6815_1_">
            <path style="fill:transparent;" d="M25.3,18.2c0.7,0.7,1.8,0.7,2.5,0l1.5,1.5c0.2,0.2,0.2,0.6,0,0.8l-9.6,9.6c-0.2,0.2-0.6,0.2-0.8,0               l-1.5-1.5c0.7-0.7,0.7-1.8,0-2.5s-1.8-0.7-2.5,0l0,0l-1.5-1.5c-0.2-0.2-0.2-0.6,0-0.8l9.6-9.6c0.2-0.2,0.6-0.2,0.8,0l0,0l1.5,1.5               C24.6,16.4,24.6,17.5,25.3,18.2z"/>
            <path style="fill:#FF8600;" d="M19.3,30.8c-0.3,0-0.6-0.1-0.8-0.3l-1.9-1.9l0.4-0.4c0.2-0.2,0.4-0.6,0.4-0.9s-0.1-0.7-0.4-0.9               c-0.5-0.5-1.3-0.5-1.8,0l-0.4,0.4L13,25c-0.4-0.4-0.4-1.1,0-1.5l9.6-9.6c0.4-0.4,1.1-0.4,1.5,0l1.9,1.9l-0.4,0.4               c-0.2,0.2-0.4,0.6-0.4,0.9s0.1,0.7,0.4,0.9c0.5,0.5,1.3,0.5,1.8,0l0.4-0.4l1.9,1.9c0.2,0.2,0.3,0.5,0.3,0.8               c0,0.3-0.1,0.6-0.3,0.8L20,30.5C19.8,30.7,19.6,30.8,19.3,30.8z M18.1,28.6l1.2,1.2c0,0,0.1,0,0.1,0l9.6-9.6c0,0,0-0.1,0-0.1               l-1.2-1.2c-0.9,0.6-2,0.5-2.8-0.3l0,0c-0.4-0.4-0.7-1-0.7-1.6c0-0.4,0.1-0.9,0.4-1.2l-1.2-1.2c0,0-0.1,0-0.1,0l-9.6,9.6               c0,0,0,0.1,0,0.1l1.2,1.2c0.9-0.6,2.1-0.4,2.8,0.3c0.4,0.4,0.7,1,0.7,1.6C18.4,27.8,18.3,28.2,18.1,28.6z"/>
          </g>
          <g id="Line_2033_2_">
            <path style="fill:#FF8600;" d="M21.6,18.4c-0.1,0-0.3-0.1-0.4-0.2L20.1,17c-0.2-0.2-0.2-0.5,0-0.7c0.2-0.2,0.5-0.2,0.7,0l1.1,1.2               c0.2,0.2,0.2,0.5,0,0.7C21.8,18.4,21.7,18.4,21.6,18.4z"/>
          </g>
          <g id="Line_2034_2_">
            <path style="fill:#FF8600;" d="M24.5,21.2c-0.1,0-0.3,0-0.4-0.1l-1.7-1.7c-0.2-0.2-0.2-0.5,0-0.7s0.5-0.2,0.7,0l1.7,1.7               c0.2,0.2,0.2,0.5,0,0.7C24.7,21.2,24.6,21.2,24.5,21.2z"/>
          </g>
          <g id="Line_2035_2_">
            <path style="fill:#FF8600;" d="M26.8,23.5c-0.1,0-0.2,0-0.3-0.1l-1.2-1.1c-0.2-0.2-0.2-0.5,0-0.7s0.5-0.2,0.7,0l1.2,1.1               c0.2,0.2,0.2,0.5,0,0.7C27.1,23.5,26.9,23.5,26.8,23.5z"/>
          </g>
        </g>
      </g>
</svg>